{"glyphs":{"0":{"ha":882,"x_min":16,"x_max":866,"o":"m 446 949 q 711 854 602 949 q 866 463 866 720 q 711 71 866 206 q 441 -23 602 -23 q 171 71 279 -23 q 16 461 16 207 q 171 854 16 721 q 446 949 281 949 m 439 741 q 354 707 393 741 q 284 463 284 648 q 327 250 284 321 q 376 203 345 221 q 441 185 407 185 q 528 218 489 185 q 597 460 597 278 q 439 741 597 741 z "},"1":{"ha":551,"x_min":9,"x_max":513,"o":"m 513 926 l 513 0 l 232 0 l 232 529 l 9 529 l 9 719 q 216 787 145 721 q 284 926 282 848 l 513 926 z "},"2":{"ha":804,"x_min":6,"x_max":790,"o":"m 786 231 l 786 0 l 6 0 q 29 159 11 107 q 93 252 47 208 q 254 378 153 310 q 482 544 446 507 q 517 625 517 578 q 483 699 517 671 q 404 726 451 726 q 298 671 332 726 q 274 582 274 633 q 277 538 274 567 l 22 538 q 26 640 22 602 q 129 852 40 770 q 410 949 232 949 q 682 867 572 949 q 760 776 732 831 q 790 652 790 719 q 726 469 790 549 q 670 414 703 439 q 557 338 638 389 q 397 231 496 298 l 786 231 z "},"3":{"ha":796,"x_min":3,"x_max":783,"o":"m 3 355 l 258 355 q 390 195 267 195 q 479 226 444 195 q 509 294 509 253 q 457 383 509 355 q 380 398 430 398 q 349 397 368 398 l 349 572 q 374 572 366 572 q 505 656 505 572 q 471 724 505 701 q 401 745 441 745 q 297 695 336 745 q 271 619 275 667 l 22 619 q 88 818 35 749 q 397 949 190 949 q 650 877 550 949 q 722 800 694 845 q 753 690 753 749 q 647 509 753 586 q 727 460 701 486 q 783 307 783 406 q 686 84 783 173 q 375 -23 570 -23 q 47 151 142 -23 q 3 355 4 230 z "},"4":{"ha":836,"x_min":9,"x_max":827,"o":"m 703 203 l 703 0 l 430 0 l 430 203 l 9 203 l 9 438 l 430 926 l 703 926 l 703 416 l 827 416 l 827 203 l 703 203 m 430 416 l 430 668 l 211 416 l 430 416 z "},"5":{"ha":823,"x_min":3,"x_max":807,"o":"m 349 708 l 311 593 q 478 644 387 644 q 700 571 608 644 q 807 329 807 486 q 698 74 807 170 q 399 -23 587 -23 q 61 131 169 -23 q 3 279 18 193 l 276 298 q 315 229 292 250 q 408 194 351 194 q 500 232 467 194 q 534 337 534 271 q 479 445 534 412 q 401 464 448 464 q 302 408 329 464 l 41 408 l 134 926 l 742 926 l 742 708 l 349 708 z "},"6":{"ha":848,"x_min":16,"x_max":831,"o":"m 798 699 l 558 678 q 444 754 530 754 q 319 678 361 754 q 294 571 297 637 q 499 631 391 631 q 741 537 646 631 q 831 313 831 446 q 746 94 831 185 q 432 -24 635 -24 q 138 87 244 -24 q 47 237 73 155 q 16 464 16 340 q 110 802 16 677 q 442 949 222 949 q 718 854 618 949 q 798 699 781 794 m 432 441 q 332 405 370 441 q 295 309 295 368 q 333 212 295 250 q 432 176 370 176 q 538 217 498 176 q 572 308 572 253 q 530 409 572 372 q 432 441 493 441 z "},"7":{"ha":756,"x_min":9,"x_max":747,"o":"m 747 926 l 747 719 q 525 385 603 574 q 446 0 449 197 l 148 0 q 220 317 162 158 q 459 685 309 551 l 9 685 l 9 926 l 747 926 z "},"8":{"ha":846,"x_min":16,"x_max":831,"o":"m 680 496 q 770 434 740 465 q 831 277 831 370 q 743 81 831 161 q 424 -23 627 -23 q 104 81 222 -23 q 16 277 16 159 q 78 434 16 370 q 168 496 108 465 q 55 685 55 566 q 152 872 55 801 q 424 949 256 949 q 696 872 592 949 q 793 685 793 801 q 680 496 793 565 m 417 770 q 316 737 357 770 q 279 659 279 708 q 419 553 279 553 q 528 584 494 553 q 558 658 558 612 q 522 737 558 707 q 417 770 481 770 m 423 419 q 303 378 347 419 q 272 301 272 349 q 302 218 272 253 q 425 172 342 172 q 549 218 509 172 q 578 301 578 253 q 547 378 578 349 q 423 419 505 419 z "},"9":{"ha":847,"x_min":16,"x_max":831,"o":"m 49 227 l 289 248 q 404 172 317 172 q 528 249 487 172 q 553 355 550 289 q 348 294 455 294 q 106 389 201 294 q 16 613 16 479 q 101 831 16 741 q 418 949 212 949 q 707 840 600 949 q 804 677 779 766 q 831 461 831 581 q 793 225 831 318 q 629 30 740 94 q 407 -23 538 -23 q 129 72 229 -23 q 49 227 66 132 m 413 750 q 309 709 349 750 q 275 618 275 673 q 317 517 275 554 q 413 485 353 485 q 515 522 477 485 q 552 616 552 558 q 514 713 552 676 q 413 750 476 750 z "}," ":{"ha":209,"x_min":0,"x_max":0,"o":""},"!":{"ha":352,"x_min":43,"x_max":308,"o":"m 308 926 l 308 715 l 241 353 l 110 353 l 43 715 l 43 926 l 308 926 m 308 269 l 308 0 l 43 0 l 43 269 l 308 269 z "},"\"":{"ha":503,"x_min":18,"x_max":485,"o":"m 199 555 l 55 555 l 18 926 l 237 926 l 199 555 m 448 555 l 302 555 l 266 926 l 485 926 l 448 555 z "},"#":{"ha":883,"x_min":18,"x_max":865,"o":"m 58 538 l 80 688 l 517 688 l 496 538 l 58 538 m 159 262 l 18 262 l 40 412 l 180 412 l 159 262 m 713 688 l 865 688 l 843 538 l 691 538 l 713 688 m 376 412 l 825 412 l 803 262 l 354 262 l 376 412 m 656 429 l 498 429 l 570 926 l 728 926 l 656 429 m 400 706 l 242 706 l 274 926 l 431 926 l 400 706 m 594 0 l 437 0 l 472 243 l 629 243 l 594 0 m 298 0 l 140 0 l 215 519 l 373 519 l 298 0 z "},"$":{"ha":806,"x_min":7,"x_max":791,"o":"m 352 210 l 352 -4 q 130 58 219 1 q 19 216 42 117 q 7 312 10 258 l 271 312 q 302 234 276 258 q 352 210 321 218 m 468 206 q 535 275 535 222 q 510 322 535 307 q 468 340 495 332 l 468 579 q 642 518 589 545 q 747 425 707 486 q 791 277 791 359 q 612 33 791 111 q 468 -4 551 6 l 468 206 m 352 372 q 163 442 225 409 q 50 558 85 484 q 27 667 27 608 q 117 860 27 793 q 328 928 192 916 q 352 930 332 928 l 352 735 q 288 673 288 720 q 352 611 288 631 l 352 372 m 468 930 q 661 882 593 924 q 778 654 778 810 q 778 641 778 650 l 530 641 q 468 732 526 711 l 468 930 m 370 1035 l 449 1035 l 449 -124 l 370 -124 l 370 1035 z "},"%":{"ha":974,"x_min":18,"x_max":955,"o":"m 599 511 q 516 452 549 488 q 444 255 444 374 q 454 172 444 216 l 382 0 l 199 0 l 374 412 q 463 478 426 435 q 529 673 529 555 q 519 758 529 714 l 591 926 l 774 926 l 599 511 m 270 943 q 419 891 355 943 q 510 675 510 818 q 448 490 510 562 q 264 409 378 409 q 98 475 165 409 q 18 680 18 551 q 85 865 18 794 q 270 943 159 943 m 263 821 q 180 674 180 821 q 266 530 180 530 q 316 547 294 530 q 351 677 351 576 q 328 790 351 752 q 263 821 308 821 m 715 517 q 864 465 800 517 q 955 249 955 392 q 893 64 955 136 q 709 -17 823 -17 q 543 49 610 -17 q 463 254 463 125 q 530 439 463 369 q 715 517 604 517 m 708 395 q 625 248 625 395 q 711 104 625 104 q 760 121 739 104 q 795 251 795 150 q 772 364 795 326 q 708 395 753 395 z "},"&":{"ha":942,"x_min":16,"x_max":939,"o":"m 588 76 q 319 -19 455 -19 q 87 81 176 -19 q 16 272 16 161 q 115 486 16 406 q 214 545 152 515 q 147 701 147 625 q 184 818 147 762 q 299 918 227 884 q 429 945 358 945 q 640 856 562 945 q 705 681 705 781 q 642 524 705 586 q 549 461 609 490 l 621 376 q 659 453 648 406 l 875 453 q 836 336 867 395 q 749 225 801 271 l 939 0 l 648 0 l 588 76 m 352 374 q 290 328 311 349 q 260 262 260 298 q 285 210 260 230 q 332 193 304 193 q 458 241 393 193 l 352 374 m 418 615 q 426 619 422 617 q 495 712 495 656 q 471 767 495 746 q 428 783 452 783 q 380 762 399 783 q 363 717 363 743 q 378 670 363 695 q 400 638 383 662 q 418 615 417 615 z "},"'":{"ha":262,"x_min":18,"x_max":243,"o":"m 206 555 l 55 555 l 18 926 l 243 926 l 206 555 z "},"(":{"ha":393,"x_min":22,"x_max":389,"o":"m 375 926 q 334 803 353 864 q 281 585 295 677 q 268 400 268 500 q 302 102 268 240 q 389 -148 340 -45 l 155 -148 q 22 382 22 140 q 98 788 22 571 q 155 926 124 862 l 375 926 z "},")":{"ha":392,"x_min":3,"x_max":370,"o":"m 18 -148 q 59 -25 40 -87 q 112 193 98 101 q 125 378 125 277 q 90 675 125 538 q 3 926 53 823 l 238 926 q 370 396 370 638 q 294 -10 370 208 q 237 -148 269 -85 l 18 -148 z "},"*":{"ha":578,"x_min":16,"x_max":562,"o":"m 363 926 l 363 756 l 519 810 l 562 677 l 407 625 l 509 488 l 395 406 l 294 545 l 187 406 l 70 488 l 179 625 l 16 677 l 63 810 l 224 756 l 224 926 l 363 926 z "},"+":{"ha":880,"x_min":70,"x_max":810,"o":"m 361 555 l 361 842 l 518 842 l 518 555 l 810 555 l 810 399 l 518 399 l 518 112 l 361 112 l 361 399 l 70 399 l 70 555 l 361 555 z "},",":{"ha":297,"x_min":16,"x_max":281,"o":"m 281 267 l 281 69 q 272 -51 281 -10 q 239 -130 264 -92 q 20 -244 163 -246 l 20 -127 q 132 0 119 -110 l 16 0 l 16 267 l 281 267 z "},"-":{"ha":405,"x_min":0,"x_max":405,"o":"m 405 500 l 405 251 l 0 251 l 0 500 l 405 500 z "},".":{"ha":296,"x_min":16,"x_max":281,"o":"m 281 269 l 281 0 l 16 0 l 16 269 l 281 269 z "},"/":{"ha":554,"x_min":-16,"x_max":570,"o":"m 570 926 l 214 -148 l -16 -148 l 340 926 l 570 926 z "},":":{"ha":296,"x_min":16,"x_max":281,"o":"m 281 667 l 281 398 l 16 398 l 16 667 l 281 667 m 281 269 l 281 0 l 16 0 l 16 269 l 281 269 z "},";":{"ha":297,"x_min":16,"x_max":281,"o":"m 281 667 l 281 398 l 16 398 l 16 667 l 281 667 m 281 267 l 281 69 q 272 -51 281 -10 q 239 -130 264 -92 q 20 -244 163 -246 l 20 -127 q 132 0 119 -110 l 16 0 l 16 267 l 281 267 z "},"<":{"ha":694,"x_min":46,"x_max":648,"o":"m 648 921 l 648 640 l 345 463 l 648 286 l 648 5 l 46 346 l 46 581 l 648 921 z "},"=":{"ha":880,"x_min":70,"x_max":810,"o":"m 810 675 l 810 519 l 70 519 l 70 675 l 810 675 m 810 434 l 810 279 l 70 279 l 70 434 l 810 434 z "},">":{"ha":694,"x_min":46,"x_max":648,"o":"m 46 921 l 648 581 l 648 346 l 46 5 l 46 286 l 349 463 l 46 640 l 46 921 z "},"?":{"ha":724,"x_min":6,"x_max":709,"o":"m 461 334 l 233 334 q 230 398 230 376 q 261 511 230 469 q 352 576 286 543 q 415 614 399 598 q 435 659 435 633 q 406 718 435 694 q 357 733 386 733 q 288 694 309 733 q 275 640 275 671 q 277 614 275 630 l 6 614 q 38 762 9 701 q 162 896 79 852 q 374 944 254 944 q 607 869 519 944 q 709 658 709 783 q 663 538 709 590 q 555 463 631 500 q 484 416 499 433 q 461 348 461 389 q 461 334 461 338 m 479 262 l 479 0 l 216 0 l 216 262 l 479 262 z "},"@":{"ha":962,"x_min":16,"x_max":947,"o":"m 616 688 l 753 688 l 700 414 q 692 357 692 371 q 711 326 692 326 q 765 365 738 326 q 814 530 814 434 q 726 737 814 659 q 511 812 643 812 q 262 711 361 812 q 159 454 159 606 q 255 208 159 307 q 507 115 345 115 q 768 163 640 115 l 800 28 q 509 -21 664 -21 q 162 106 295 -21 q 53 269 92 173 q 16 456 16 359 q 90 717 16 595 q 281 895 161 833 q 506 947 385 947 q 808 841 686 947 q 915 692 878 780 q 947 533 947 616 q 880 313 947 408 q 705 208 806 208 q 600 269 635 208 q 564 237 583 250 q 440 198 503 198 q 297 262 355 198 q 239 422 239 326 q 318 626 239 538 q 484 703 388 703 q 609 652 553 703 l 616 688 m 498 559 q 416 510 449 559 q 390 427 390 471 q 408 366 390 389 q 469 337 430 337 q 549 387 517 337 q 574 473 574 427 q 557 532 574 509 q 498 559 536 559 z "},"A":{"ha":964,"x_min":3,"x_max":961,"o":"m 325 132 l 280 0 l 3 0 l 342 926 l 622 926 l 961 0 l 676 0 l 633 132 l 325 132 m 389 323 l 570 323 l 484 595 l 389 323 z "},"B":{"ha":873,"x_min":33,"x_max":863,"o":"m 33 926 l 490 926 q 694 892 629 926 q 783 813 750 864 q 822 684 822 755 q 710 503 822 560 q 863 276 863 439 q 788 89 863 165 q 603 5 719 18 q 492 0 561 0 l 33 0 l 33 926 m 307 708 l 307 568 l 446 568 q 525 576 505 568 q 564 637 564 591 q 517 702 564 686 q 448 708 501 708 l 307 708 m 307 387 l 307 218 l 481 218 q 557 228 536 218 q 600 302 600 248 q 531 384 600 370 q 475 387 515 387 l 307 387 z "},"C":{"ha":912,"x_min":16,"x_max":909,"o":"m 909 351 q 816 123 892 215 q 486 -21 695 -21 q 177 88 303 -21 q 64 239 106 150 q 16 467 16 343 q 80 722 16 606 q 283 909 153 851 q 469 947 369 947 q 730 871 616 947 q 880 686 840 798 q 901 582 896 644 l 629 582 q 593 669 622 637 q 475 718 550 718 q 360 665 402 718 q 298 457 298 585 q 359 262 298 331 q 483 208 405 208 q 610 281 571 208 q 629 351 625 309 l 909 351 z "},"D":{"ha":920,"x_min":32,"x_max":903,"o":"m 32 926 l 456 926 q 749 838 637 926 q 903 463 903 716 q 829 173 903 288 q 576 8 741 35 q 462 0 529 0 l 32 0 l 32 926 m 307 685 l 307 241 l 408 241 q 537 273 490 241 q 621 460 621 330 q 535 655 621 600 q 411 685 488 685 l 307 685 z "},"E":{"ha":840,"x_min":32,"x_max":827,"o":"m 310 365 l 310 241 l 827 241 l 827 0 l 32 0 l 32 926 l 814 926 l 814 685 l 310 685 l 310 568 l 745 568 l 745 365 l 310 365 z "},"F":{"ha":786,"x_min":32,"x_max":776,"o":"m 310 338 l 310 0 l 32 0 l 32 926 l 776 926 l 776 685 l 310 685 l 310 555 l 696 555 l 696 338 l 310 338 z "},"G":{"ha":952,"x_min":16,"x_max":923,"o":"m 923 514 l 923 0 l 734 0 l 718 92 q 644 28 675 48 q 446 -21 563 -21 q 128 120 251 -21 q 16 444 16 250 q 147 810 16 667 q 475 947 273 947 q 723 884 619 947 q 898 612 866 799 l 629 612 q 584 682 614 656 q 479 718 541 718 q 340 643 388 718 q 298 467 298 575 q 363 262 298 331 q 496 208 415 208 q 623 252 574 208 q 656 311 645 272 l 536 311 l 536 514 l 923 514 z "},"H":{"ha":902,"x_min":32,"x_max":869,"o":"m 869 926 l 869 0 l 591 0 l 591 365 l 310 365 l 310 0 l 32 0 l 32 926 l 310 926 l 310 606 l 591 606 l 591 926 l 869 926 z "},"I":{"ha":342,"x_min":32,"x_max":310,"o":"m 310 926 l 310 0 l 32 0 l 32 926 l 310 926 z "},"J":{"ha":730,"x_min":5,"x_max":701,"o":"m 701 926 l 701 328 q 678 168 701 222 q 553 28 642 77 q 352 -21 467 -21 q 113 60 203 -21 q 5 337 5 155 q 7 384 5 353 l 265 384 q 264 353 264 363 q 282 240 264 267 q 349 208 303 208 q 418 260 405 208 q 422 324 422 277 l 422 926 l 701 926 z "},"K":{"ha":976,"x_min":32,"x_max":972,"o":"m 309 277 l 309 0 l 32 0 l 32 926 l 309 926 l 309 628 l 585 926 l 937 926 l 585 558 l 972 0 l 624 0 l 394 366 l 309 277 z "},"L":{"ha":734,"x_min":32,"x_max":724,"o":"m 310 926 l 310 241 l 724 241 l 724 0 l 32 0 l 32 926 l 310 926 z "},"M":{"ha":1062,"x_min":32,"x_max":1030,"o":"m 1030 926 l 1030 0 l 773 0 l 773 540 l 634 0 l 426 0 l 289 540 l 289 0 l 32 0 l 32 926 l 406 926 l 531 429 l 661 926 l 1030 926 z "},"N":{"ha":905,"x_min":32,"x_max":873,"o":"m 873 926 l 873 0 l 590 0 l 310 477 l 310 0 l 32 0 l 32 926 l 312 926 l 595 443 l 595 926 l 873 926 z "},"O":{"ha":973,"x_min":16,"x_max":958,"o":"m 492 947 q 795 844 670 947 q 958 463 958 711 q 795 81 958 216 q 487 -21 671 -21 q 179 81 303 -21 q 16 461 16 216 q 179 844 16 715 q 492 947 307 947 m 484 718 q 342 637 393 718 q 298 463 298 567 q 342 289 298 359 q 487 208 393 208 q 631 289 581 208 q 675 462 675 359 q 631 637 675 568 q 484 718 580 718 z "},"P":{"ha":854,"x_min":32,"x_max":848,"o":"m 310 283 l 310 0 l 32 0 l 32 926 l 472 926 q 669 894 597 926 q 799 776 751 857 q 848 595 848 694 q 777 393 848 477 q 498 283 684 283 l 310 283 m 310 699 l 310 500 l 452 500 q 526 518 501 500 q 566 603 566 547 q 513 691 566 671 q 455 699 494 699 l 310 699 z "},"Q":{"ha":962,"x_min":16,"x_max":958,"o":"m 956 35 l 836 -90 l 715 29 q 487 -21 610 -21 q 179 81 303 -21 q 16 463 16 216 q 179 844 16 710 q 487 947 302 947 q 795 844 671 947 q 958 464 958 710 q 851 138 958 269 l 956 35 m 571 413 l 653 332 q 675 462 675 397 q 631 637 675 567 q 487 718 581 718 q 342 637 393 718 q 298 463 298 567 q 342 289 298 359 q 486 208 393 208 q 530 214 505 208 l 454 288 l 571 413 z "},"R":{"ha":886,"x_min":33,"x_max":882,"o":"m 311 319 l 311 0 l 33 0 l 33 926 l 479 926 q 718 886 631 926 q 869 648 869 816 q 713 420 869 486 q 827 317 789 395 q 858 125 855 256 q 869 30 861 53 q 882 0 873 16 l 593 0 q 581 118 583 39 q 545 273 576 232 q 486 313 522 303 q 426 319 465 319 l 311 319 m 311 699 l 311 519 l 469 519 q 538 527 519 519 q 586 612 586 548 q 534 692 586 675 q 470 699 516 699 l 311 699 z "},"S":{"ha":848,"x_min":3,"x_max":838,"o":"m 800 654 l 524 654 q 507 696 517 684 q 407 734 479 734 q 339 719 366 734 q 311 674 311 703 q 342 635 311 649 q 456 602 360 627 q 657 542 608 562 q 838 294 838 465 q 771 111 838 191 q 427 -21 660 -21 q 130 58 244 -21 q 4 300 3 146 l 286 300 q 302 245 292 262 q 429 192 335 192 q 519 210 484 192 q 555 264 555 229 q 525 311 555 296 q 448 337 511 317 q 195 419 260 391 q 31 661 31 492 q 125 867 31 791 q 235 924 176 909 q 420 947 318 947 q 737 830 642 947 q 800 654 789 766 z "},"T":{"ha":828,"x_min":9,"x_max":819,"o":"m 555 685 l 555 0 l 277 0 l 277 685 l 9 685 l 9 926 l 819 926 l 819 685 l 555 685 z "},"U":{"ha":909,"x_min":29,"x_max":881,"o":"m 881 926 l 881 372 q 872 252 881 297 q 734 45 848 124 q 455 -21 638 -21 q 176 45 272 -21 q 38 252 62 124 q 29 372 29 297 l 29 926 l 307 926 l 307 363 q 455 208 307 208 q 583 269 547 208 q 603 363 603 304 l 603 926 l 881 926 z "},"V":{"ha":901,"x_min":3,"x_max":896,"o":"m 896 926 l 600 0 l 286 0 l 3 926 l 286 926 l 444 303 l 608 926 l 896 926 z "},"W":{"ha":1290,"x_min":3,"x_max":1287,"o":"m 1287 926 l 1033 0 l 754 0 l 647 592 l 545 0 l 267 0 l 3 926 l 276 926 l 408 367 l 524 926 l 768 926 l 888 367 l 1019 926 l 1287 926 z "},"X":{"ha":1012,"x_min":3,"x_max":1008,"o":"m 671 477 l 1008 0 l 669 0 l 505 275 l 337 0 l 3 0 l 340 477 l 28 926 l 355 926 l 505 673 l 659 926 l 985 926 l 671 477 z "},"Y":{"ha":960,"x_min":3,"x_max":958,"o":"m 617 335 l 617 0 l 339 0 l 339 335 l 3 926 l 311 926 l 479 570 l 645 926 l 958 926 l 617 335 z "},"Z":{"ha":827,"x_min":9,"x_max":817,"o":"m 817 241 l 817 0 l 9 0 l 9 241 l 414 685 l 35 685 l 35 926 l 790 926 l 790 713 l 361 241 l 817 241 z "},"[":{"ha":414,"x_min":32,"x_max":407,"o":"m 268 741 l 268 37 l 407 37 l 407 -148 l 32 -148 l 32 926 l 407 926 l 407 741 l 268 741 z "},"\\":{"ha":554,"x_min":-16,"x_max":570,"o":"m -16 926 l 214 926 l 570 -148 l 340 -148 l -16 926 z "},"]":{"ha":414,"x_min":6,"x_max":381,"o":"m 145 741 l 6 741 l 6 926 l 381 926 l 381 -148 l 6 -148 l 6 37 l 145 37 l 145 741 z "},"^":{"ha":694,"x_min":4,"x_max":690,"o":"m 250 461 l 4 461 l 191 933 l 504 933 l 690 461 l 445 461 l 348 743 l 250 461 z "},"_":{"ha":694,"x_min":0,"x_max":694,"o":"m 0 -64 l 694 -64 l 694 -227 l 0 -227 l 0 -64 z "},"`":{"ha":694,"x_min":113,"x_max":429,"o":"m 113 948 l 362 948 l 429 736 l 269 736 l 113 948 z "},"a":{"ha":753,"x_min":9,"x_max":751,"o":"m 276 443 l 37 443 q 105 614 44 558 q 363 688 186 688 q 659 593 584 688 q 703 426 703 538 l 703 137 q 720 37 703 71 q 751 0 729 18 l 478 0 q 464 40 471 15 q 457 76 458 64 q 392 14 423 32 q 245 -21 334 -21 q 66 39 132 -21 q 9 172 9 91 q 106 339 9 283 q 292 393 156 368 q 427 427 403 413 q 454 471 454 443 q 445 498 454 486 q 372 524 424 524 q 292 499 319 524 q 275 457 275 484 q 276 443 275 451 m 457 313 q 403 281 431 292 q 322 256 381 271 q 262 230 277 245 q 246 193 246 214 q 262 156 246 172 q 323 136 283 136 q 431 186 395 136 q 457 279 457 222 l 457 313 z "},"b":{"ha":781,"x_min":32,"x_max":766,"o":"m 275 77 l 275 0 l 32 0 l 32 926 l 284 926 l 284 600 q 349 654 319 637 q 477 688 407 688 q 672 602 592 688 q 766 326 766 502 q 695 85 766 178 q 473 -21 616 -21 q 275 77 359 -21 m 395 497 q 305 448 338 497 q 278 339 278 408 q 307 230 278 271 q 400 179 342 179 q 482 222 453 179 q 511 338 511 265 q 482 450 511 408 q 395 497 449 497 z "},"c":{"ha":732,"x_min":16,"x_max":729,"o":"m 485 275 l 729 271 q 649 80 726 157 q 522 3 598 31 q 382 -21 455 -21 q 102 102 208 -21 q 16 334 16 200 q 79 538 16 448 q 222 654 134 615 q 391 688 297 688 q 659 581 564 688 q 729 419 715 517 l 485 414 q 385 512 468 512 q 299 463 327 512 q 271 330 271 412 q 293 214 271 261 q 387 155 322 155 q 471 212 445 155 q 485 275 481 237 z "},"d":{"ha":785,"x_min":16,"x_max":753,"o":"m 753 926 l 753 0 l 515 0 l 515 77 q 450 13 481 33 q 311 -21 394 -21 q 94 77 169 -21 q 16 332 16 178 q 94 585 16 486 q 306 688 175 688 q 501 599 425 688 l 501 926 l 753 926 m 384 498 q 296 448 325 498 q 270 340 270 404 q 301 222 270 269 q 382 180 329 180 q 477 234 444 180 q 503 342 503 277 q 479 448 503 410 q 384 498 448 498 z "},"e":{"ha":774,"x_min":16,"x_max":758,"o":"m 758 269 l 267 269 q 292 205 273 229 q 399 155 330 155 q 497 204 465 155 l 743 204 q 652 64 718 117 q 527 0 602 23 q 386 -21 458 -21 q 186 28 275 -21 q 44 195 88 83 q 16 338 16 264 q 140 606 16 504 q 378 688 238 688 q 621 605 521 688 q 758 269 758 492 m 500 408 q 479 473 496 449 q 389 516 448 516 q 296 476 331 516 q 270 408 276 452 l 500 408 z "},"f":{"ha":489,"x_min":7,"x_max":483,"o":"m 352 517 l 352 0 l 100 0 l 100 517 l 7 517 l 7 667 l 100 667 l 100 698 q 136 842 100 788 q 241 916 174 896 q 356 928 285 928 q 483 926 379 928 l 483 749 q 444 752 456 752 q 369 732 387 752 q 352 683 352 713 l 352 667 l 483 667 l 483 517 l 352 517 z "},"g":{"ha":764,"x_min":16,"x_max":732,"o":"m 732 667 l 732 180 q 726 52 732 108 q 618 -167 711 -102 q 382 -222 540 -222 q 127 -141 207 -222 q 64 -13 82 -96 l 301 -13 q 388 -58 324 -58 q 473 -19 451 -58 q 488 81 488 9 l 488 102 q 305 38 404 38 q 90 130 170 38 q 16 351 16 214 q 120 621 16 525 q 296 688 192 688 q 503 576 439 688 l 503 667 l 732 667 m 377 498 q 290 462 326 498 q 253 359 253 425 q 292 253 253 294 q 377 216 326 216 q 470 260 435 216 q 498 359 498 297 q 472 454 498 420 q 377 498 439 498 z "},"h":{"ha":768,"x_min":32,"x_max":739,"o":"m 284 926 l 284 597 q 380 665 340 648 q 495 688 433 688 q 653 639 585 688 q 739 435 739 577 l 739 0 l 487 0 l 487 337 q 477 424 487 397 q 390 480 458 480 q 313 450 342 480 q 284 351 284 420 l 284 0 l 32 0 l 32 926 l 284 926 z "},"i":{"ha":317,"x_min":32,"x_max":284,"o":"m 284 667 l 284 0 l 32 0 l 32 667 l 284 667 m 284 926 l 284 746 l 32 746 l 32 926 l 284 926 z "},"j":{"ha":317,"x_min":-98,"x_max":284,"o":"m 284 667 l 284 58 q 282 -38 284 -13 q 219 -167 276 -118 q 72 -213 165 -213 q -98 -201 14 -213 l -98 -9 q -41 -13 -58 -13 q 28 28 12 -13 q 32 90 32 39 l 32 667 l 284 667 m 284 926 l 284 746 l 32 746 l 32 926 l 284 926 z "},"k":{"ha":775,"x_min":32,"x_max":772,"o":"m 284 178 l 284 0 l 32 0 l 32 926 l 284 926 l 284 469 l 447 667 l 747 667 l 499 406 l 772 0 l 470 0 l 333 231 l 284 178 z "},"l":{"ha":317,"x_min":32,"x_max":284,"o":"m 284 926 l 284 0 l 32 0 l 32 926 l 284 926 z "},"m":{"ha":1182,"x_min":32,"x_max":1153,"o":"m 268 667 l 268 569 q 477 688 338 688 q 681 569 623 688 q 739 637 710 615 q 904 688 806 688 q 1073 631 1008 688 q 1147 492 1133 577 q 1153 405 1153 454 l 1153 0 l 901 0 l 901 347 q 893 429 901 407 q 818 477 876 477 q 719 329 719 477 l 719 0 l 467 0 l 467 347 q 458 429 467 406 q 384 477 443 477 q 284 329 284 477 l 284 0 l 32 0 l 32 667 l 268 667 z "},"n":{"ha":757,"x_min":32,"x_max":728,"o":"m 268 667 l 268 570 q 340 648 305 624 q 488 688 399 688 q 699 569 639 688 q 728 434 728 514 l 728 0 l 475 0 l 475 382 q 391 477 475 477 q 323 454 353 477 q 283 340 283 422 l 283 0 l 32 0 l 32 667 l 268 667 z "},"o":{"ha":773,"x_min":16,"x_max":758,"o":"m 391 688 q 582 640 492 688 q 722 493 677 588 q 758 333 758 420 q 656 81 758 179 q 526 3 603 30 q 387 -21 459 -21 q 191 27 281 -21 q 51 174 97 78 q 16 332 16 246 q 117 586 16 490 q 391 688 226 688 m 385 512 q 271 335 271 512 q 387 155 271 155 q 503 332 503 155 q 385 512 503 512 z "},"p":{"ha":784,"x_min":32,"x_max":768,"o":"m 270 667 l 270 585 q 334 647 304 627 q 473 688 392 688 q 685 594 607 688 q 768 328 768 496 q 698 85 768 176 q 473 -21 616 -21 q 344 12 399 -21 q 284 67 314 30 l 284 -218 l 32 -218 l 32 667 l 270 667 m 393 481 q 311 440 342 481 q 279 320 279 398 q 309 209 279 250 q 399 162 342 162 q 490 216 462 162 q 513 319 513 258 q 475 445 513 399 q 393 481 444 481 z "},"q":{"ha":786,"x_min":16,"x_max":754,"o":"m 754 667 l 754 -218 l 502 -218 l 502 55 q 309 -21 415 -21 q 149 28 219 -21 q 16 336 16 121 q 50 519 16 435 q 159 647 83 601 q 313 688 228 688 q 466 636 404 688 q 515 584 487 619 l 515 667 l 754 667 m 388 480 q 296 424 328 480 q 271 316 271 380 q 302 203 271 245 q 390 161 333 161 q 461 186 433 161 q 507 317 507 228 q 475 438 507 397 q 388 480 442 480 z "},"r":{"ha":536,"x_min":32,"x_max":530,"o":"m 261 667 l 261 573 q 458 682 338 682 q 530 671 489 682 l 530 461 q 464 470 492 470 q 312 400 357 470 q 284 279 284 357 l 284 0 l 32 0 l 32 667 l 261 667 z "},"s":{"ha":690,"x_min":3,"x_max":684,"o":"m 3 217 l 245 217 q 353 124 253 124 q 413 143 393 124 q 431 184 431 159 q 395 230 431 217 q 218 267 376 236 q 66 339 115 288 q 17 465 17 392 q 99 623 17 565 q 346 688 191 688 q 538 654 462 688 q 646 549 620 618 q 663 471 656 523 l 427 471 q 410 515 421 502 q 340 539 389 539 q 282 526 304 539 q 262 491 262 513 q 295 451 262 464 q 365 436 316 442 q 510 411 469 421 q 648 323 604 387 q 684 206 684 271 q 601 46 684 104 q 346 -21 506 -21 q 123 26 211 -21 q 12 157 33 75 q 3 217 6 180 z "},"t":{"ha":479,"x_min":6,"x_max":472,"o":"m 351 882 l 351 667 l 472 667 l 472 517 l 351 517 l 351 269 q 373 204 351 222 q 417 191 391 191 q 472 197 436 191 l 472 5 q 300 -11 379 -11 q 119 76 168 -11 q 100 163 102 106 q 99 250 99 179 l 99 517 l 6 517 l 6 667 l 99 667 l 99 882 l 351 882 z "},"u":{"ha":757,"x_min":29,"x_max":725,"o":"m 725 667 l 725 0 l 490 0 l 490 97 q 398 7 446 32 q 279 -22 345 -22 q 140 13 203 -22 q 43 141 64 54 q 29 280 29 195 l 29 667 l 281 667 l 281 325 q 292 238 281 262 q 366 193 312 193 q 453 233 421 193 q 469 269 466 250 q 473 325 473 290 l 473 667 l 725 667 z "},"v":{"ha":758,"x_min":3,"x_max":755,"o":"m 755 667 l 528 0 l 224 0 l 3 667 l 261 667 l 378 271 l 495 667 l 755 667 z "},"w":{"ha":1149,"x_min":3,"x_max":1147,"o":"m 1147 667 l 935 0 l 677 0 l 577 388 l 479 0 l 219 0 l 3 667 l 264 667 l 366 281 l 461 667 l 691 667 l 785 281 l 888 667 l 1147 667 z "},"x":{"ha":748,"x_min":3,"x_max":745,"o":"m 513 347 l 745 0 l 469 0 l 376 162 l 279 0 l 3 0 l 237 347 l 24 667 l 298 667 l 376 530 l 452 667 l 729 667 l 513 347 z "},"y":{"ha":767,"x_min":3,"x_max":764,"o":"m 764 667 l 558 58 q 424 -170 500 -111 q 288 -212 370 -212 q 225 -213 271 -213 l 91 -213 l 91 -18 q 156 -19 151 -19 q 235 31 235 -19 q 219 98 235 56 l 3 667 l 268 667 l 384 255 l 500 667 l 764 667 z "},"z":{"ha":661,"x_min":9,"x_max":651,"o":"m 637 489 l 330 193 l 651 193 l 651 0 l 9 0 l 9 182 l 312 474 l 36 474 l 36 667 l 637 667 l 637 489 z "},"{":{"ha":426,"x_min":7,"x_max":419,"o":"m 204 389 q 254 345 240 367 q 284 220 283 304 l 284 146 q 292 74 286 85 q 334 39 307 46 q 392 33 361 33 l 419 33 l 419 -148 l 345 -148 q 199 -138 230 -147 q 100 -53 126 -119 q 85 54 85 -13 l 85 187 q 64 279 85 254 q 7 313 41 306 l 7 473 q 65 508 45 481 q 85 589 83 530 l 85 732 q 130 878 84 834 q 210 919 162 908 q 346 926 235 926 l 419 926 l 419 745 l 392 745 q 308 725 326 745 q 286 676 288 706 q 284 629 284 659 l 284 555 q 260 438 284 477 q 204 389 243 412 z "},"|":{"ha":694,"x_min":204,"x_max":490,"o":"m 204 926 l 490 926 l 490 -231 l 204 -231 l 204 926 z "},"}":{"ha":426,"x_min":7,"x_max":419,"o":"m 222 389 q 172 432 186 411 q 142 557 143 473 l 142 631 q 134 703 140 692 q 92 738 119 731 q 34 745 65 745 l 7 745 l 7 926 l 81 926 q 227 916 196 925 q 326 830 300 897 q 341 723 341 790 l 341 591 q 362 498 341 523 q 419 465 385 471 l 419 304 q 361 270 382 296 q 341 189 343 248 l 341 46 q 296 -100 342 -56 q 216 -141 264 -130 q 80 -148 191 -148 l 7 -148 l 7 33 l 34 33 q 118 53 100 33 q 140 102 138 73 q 142 149 142 119 l 142 222 q 166 339 142 300 q 222 389 182 365 z "},"~":{"ha":926,"x_min":127,"x_max":803,"o":"m 261 737 l 127 851 q 189 975 156 928 q 347 1065 254 1065 q 429 1048 380 1065 q 492 1027 439 1045 q 591 998 572 998 q 646 1031 624 998 q 669 1069 653 1041 l 803 956 q 734 823 766 865 q 582 739 671 739 q 508 755 554 739 q 410 790 437 780 q 338 809 357 809 q 288 782 309 809 q 261 737 277 766 z "},"Ä":{"ha":964,"x_min":3,"x_max":961,"o":"m 325 132 l 280 0 l 3 0 l 342 926 l 622 926 l 961 0 l 676 0 l 633 132 l 325 132 m 389 323 l 570 323 l 484 595 l 389 323 m 441 1019 l 441 829 l 251 829 l 251 1019 l 441 1019 m 711 1019 l 711 829 l 522 829 l 522 1019 l 711 1019 z "},"Å":{"ha":964,"x_min":3,"x_max":961,"o":"m 288 777 q 328 734 307 750 q 482 683 393 683 q 637 734 571 683 q 677 777 658 751 l 961 0 l 676 0 l 633 132 l 325 132 l 280 0 l 3 0 l 288 777 m 389 323 l 570 323 l 484 595 l 389 323 m 485 1023 q 625 976 564 1023 q 685 863 685 930 q 625 748 685 795 q 482 701 565 701 q 339 748 399 701 q 279 862 279 795 q 339 976 279 930 q 485 1023 400 1023 m 481 918 q 441 901 458 918 q 423 863 423 885 q 441 823 423 839 q 482 806 458 806 q 524 823 507 806 q 541 863 541 839 q 524 901 541 886 q 481 918 506 918 z "},"Ç":{"ha":912,"x_min":16,"x_max":909,"o":"m 629 0 q 578 56 609 35 q 456 93 526 93 q 290 40 384 93 l 302 13 q 177 88 231 42 q 64 239 106 150 q 16 467 16 343 q 80 722 16 606 q 283 909 153 851 q 469 947 369 947 q 730 871 616 947 q 880 686 840 798 q 901 582 896 644 l 629 582 q 593 669 622 637 q 475 718 550 718 q 360 665 402 718 q 298 457 298 585 q 359 262 298 331 q 483 208 405 208 q 610 281 571 208 q 629 351 625 309 l 909 351 q 816 123 896 220 q 629 0 741 35 m 311 -180 l 342 -108 q 421 -132 394 -132 q 472 -113 454 -132 q 488 -72 488 -96 q 467 -26 488 -43 q 422 -12 450 -12 q 345 -36 394 -12 l 314 32 q 456 74 391 74 q 568 40 520 74 q 627 -73 627 -1 q 568 -188 627 -145 q 455 -222 519 -222 q 311 -180 390 -222 z "},"É":{"ha":840,"x_min":32,"x_max":827,"o":"m 310 365 l 310 241 l 827 241 l 827 0 l 32 0 l 32 926 l 814 926 l 814 685 l 310 685 l 310 568 l 745 568 l 745 365 l 310 365 m 585 1019 l 431 840 l 263 840 l 323 1019 l 585 1019 z "},"Ñ":{"ha":905,"x_min":32,"x_max":873,"o":"m 873 926 l 873 0 l 590 0 l 310 477 l 310 0 l 32 0 l 32 926 l 312 926 l 595 443 l 595 926 l 873 926 m 695 1019 q 682 923 695 962 q 629 853 666 878 q 546 829 593 829 q 473 843 506 829 l 398 876 q 378 879 390 879 q 338 827 342 879 l 211 827 q 235 938 210 892 q 355 1019 276 1019 q 423 1005 392 1019 l 487 975 q 522 967 505 967 q 564 1019 557 967 l 695 1019 z "},"Ö":{"ha":973,"x_min":16,"x_max":958,"o":"m 492 947 q 795 844 670 947 q 958 463 958 711 q 795 81 958 216 q 487 -21 671 -21 q 179 81 303 -21 q 16 461 16 216 q 179 844 16 715 q 492 947 307 947 m 484 718 q 342 637 393 718 q 298 463 298 567 q 342 289 298 359 q 487 208 393 208 q 631 289 581 208 q 675 462 675 359 q 631 637 675 568 q 484 718 580 718 m 446 1019 l 446 829 l 256 829 l 256 1019 l 446 1019 m 717 1019 l 717 829 l 527 829 l 527 1019 l 717 1019 z "},"Ü":{"ha":909,"x_min":29,"x_max":881,"o":"m 881 926 l 881 372 q 872 252 881 297 q 734 45 848 124 q 455 -21 638 -21 q 176 45 272 -21 q 38 252 62 124 q 29 372 29 297 l 29 926 l 307 926 l 307 363 q 455 208 307 208 q 583 269 547 208 q 603 363 603 304 l 603 926 l 881 926 m 414 1019 l 414 829 l 224 829 l 224 1019 l 414 1019 m 685 1019 l 685 829 l 495 829 l 495 1019 l 685 1019 z "},"á":{"ha":753,"x_min":9,"x_max":751,"o":"m 276 443 l 37 443 q 105 614 44 558 q 363 688 186 688 q 659 593 584 688 q 703 426 703 538 l 703 137 q 720 37 703 71 q 751 0 729 18 l 478 0 q 464 40 471 15 q 457 76 458 64 q 392 14 423 32 q 245 -21 334 -21 q 66 39 132 -21 q 9 172 9 91 q 106 339 9 283 q 292 393 156 368 q 427 427 403 413 q 454 471 454 443 q 445 498 454 486 q 372 524 424 524 q 292 499 319 524 q 275 457 275 484 q 276 443 275 451 m 457 313 q 403 281 431 292 q 322 256 381 271 q 262 230 277 245 q 246 193 246 214 q 262 156 246 172 q 323 136 283 136 q 431 186 395 136 q 457 279 457 222 l 457 313 m 611 948 l 455 736 l 295 736 l 361 948 l 611 948 z "},"à":{"ha":753,"x_min":9,"x_max":751,"o":"m 276 443 l 37 443 q 105 614 44 558 q 363 688 186 688 q 659 593 584 688 q 703 426 703 538 l 703 137 q 720 37 703 71 q 751 0 729 18 l 478 0 q 464 40 471 15 q 457 76 458 64 q 392 14 423 32 q 245 -21 334 -21 q 66 39 132 -21 q 9 172 9 91 q 106 339 9 283 q 292 393 156 368 q 427 427 403 413 q 454 471 454 443 q 445 498 454 486 q 372 524 424 524 q 292 499 319 524 q 275 457 275 484 q 276 443 275 451 m 457 313 q 403 281 431 292 q 322 256 381 271 q 262 230 277 245 q 246 193 246 214 q 262 156 246 172 q 323 136 283 136 q 431 186 395 136 q 457 279 457 222 l 457 313 m 142 948 l 391 948 l 458 736 l 298 736 l 142 948 z "},"â":{"ha":753,"x_min":9,"x_max":751,"o":"m 276 443 l 37 443 q 105 614 44 558 q 363 688 186 688 q 659 593 584 688 q 703 426 703 538 l 703 137 q 720 37 703 71 q 751 0 729 18 l 478 0 q 464 40 471 15 q 457 76 458 64 q 392 14 423 32 q 245 -21 334 -21 q 66 39 132 -21 q 9 172 9 91 q 106 339 9 283 q 292 393 156 368 q 427 427 403 413 q 454 471 454 443 q 445 498 454 486 q 372 524 424 524 q 292 499 319 524 q 275 457 275 484 q 276 443 275 451 m 457 313 q 403 281 431 292 q 322 256 381 271 q 262 230 277 245 q 246 193 246 214 q 262 156 246 172 q 323 136 283 136 q 431 186 395 136 q 457 279 457 222 l 457 313 m 376 846 l 306 736 l 112 736 l 270 942 l 482 942 l 640 736 l 446 736 l 376 846 z "},"ä":{"ha":753,"x_min":9,"x_max":751,"o":"m 276 443 l 37 443 q 105 614 44 558 q 363 688 186 688 q 659 593 584 688 q 703 426 703 538 l 703 137 q 720 37 703 71 q 751 0 729 18 l 478 0 q 464 40 471 15 q 457 76 458 64 q 392 14 423 32 q 245 -21 334 -21 q 66 39 132 -21 q 9 172 9 91 q 106 339 9 283 q 292 393 156 368 q 427 427 403 413 q 454 471 454 443 q 445 498 454 486 q 372 524 424 524 q 292 499 319 524 q 275 457 275 484 q 276 443 275 451 m 457 313 q 403 281 431 292 q 322 256 381 271 q 262 230 277 245 q 246 193 246 214 q 262 156 246 172 q 323 136 283 136 q 431 186 395 136 q 457 279 457 222 l 457 313 m 336 926 l 336 736 l 146 736 l 146 926 l 336 926 m 606 926 l 606 736 l 416 736 l 416 926 l 606 926 z "},"ã":{"ha":876,"x_min":9,"x_max":751,"o":"m 276 443 l 37 443 q 105 614 44 558 q 363 688 186 688 q 659 593 584 688 q 703 426 703 538 l 703 137 q 720 37 703 71 q 751 0 729 18 l 478 0 q 464 40 471 15 q 457 76 458 64 q 392 14 423 32 q 245 -21 334 -21 q 66 39 132 -21 q 9 172 9 91 q 106 339 9 283 q 292 393 156 368 q 427 427 403 413 q 454 471 454 443 q 445 498 454 486 q 372 524 424 524 q 292 499 319 524 q 275 457 275 484 q 276 443 275 451 m 457 313 q 403 281 431 292 q 322 256 381 271 q 262 230 277 245 q 246 193 246 214 q 262 156 246 172 q 323 136 283 136 q 431 186 395 136 q 457 279 457 222 l 457 313 m 619 928 q 606 831 619 871 q 553 762 590 787 q 470 738 517 738 q 397 752 430 738 l 322 783 q 302 787 314 787 q 262 736 266 787 l 135 736 q 159 847 134 800 q 279 928 201 928 q 347 913 315 928 l 411 884 q 446 876 429 876 q 488 928 482 876 l 619 928 z "},"å":{"ha":753,"x_min":9,"x_max":751,"o":"m 276 443 l 37 443 q 105 614 44 558 q 363 688 186 688 q 659 593 584 688 q 703 426 703 538 l 703 137 q 720 37 703 71 q 751 0 729 18 l 478 0 q 464 40 471 15 q 457 76 458 64 q 392 14 423 32 q 245 -21 334 -21 q 66 39 132 -21 q 9 172 9 91 q 106 339 9 283 q 292 393 156 368 q 427 427 403 413 q 454 471 454 443 q 445 498 454 486 q 372 524 424 524 q 292 499 319 524 q 275 457 275 484 q 276 443 275 451 m 457 313 q 403 281 431 292 q 322 256 381 271 q 262 230 277 245 q 246 193 246 214 q 262 156 246 172 q 323 136 283 136 q 431 186 395 136 q 457 279 457 222 l 457 313 m 378 1015 q 485 972 439 1015 q 530 869 530 930 q 485 764 530 807 q 376 722 439 722 q 267 764 313 722 q 222 868 222 808 q 267 972 222 930 q 378 1015 314 1015 m 376 919 q 340 904 355 919 q 325 869 325 889 q 340 832 325 847 q 376 817 355 817 q 412 832 397 817 q 427 868 427 847 q 412 904 427 890 q 376 919 397 919 z "},"ç":{"ha":732,"x_min":16,"x_max":729,"o":"m 534 7 q 366 93 475 93 q 200 40 294 93 l 210 18 q 102 101 145 51 q 16 334 16 201 q 79 538 16 448 q 222 654 134 615 q 391 688 297 688 q 659 581 564 688 q 729 419 715 517 l 485 414 q 385 512 468 512 q 299 463 327 512 q 271 330 271 412 q 293 214 271 261 q 387 155 322 155 q 471 212 445 155 q 485 275 481 237 l 729 271 q 648 80 728 159 q 534 7 602 35 m 221 -180 l 252 -108 q 331 -132 304 -132 q 382 -113 363 -132 q 398 -72 398 -96 q 377 -26 398 -43 q 332 -12 360 -12 q 254 -36 304 -12 l 224 32 q 366 74 301 74 q 478 40 430 74 q 537 -73 537 -1 q 478 -188 537 -145 q 365 -222 429 -222 q 221 -180 300 -222 z "},"é":{"ha":774,"x_min":16,"x_max":758,"o":"m 758 269 l 267 269 q 292 205 273 229 q 399 155 330 155 q 497 204 465 155 l 743 204 q 652 64 718 117 q 527 0 602 23 q 386 -21 458 -21 q 186 28 275 -21 q 44 195 88 83 q 16 338 16 264 q 140 606 16 504 q 378 688 238 688 q 621 605 521 688 q 758 269 758 492 m 500 408 q 479 473 496 449 q 389 516 448 516 q 296 476 331 516 q 270 408 276 452 l 500 408 m 622 948 l 466 736 l 306 736 l 372 948 l 622 948 z "},"è":{"ha":774,"x_min":16,"x_max":758,"o":"m 758 269 l 267 269 q 292 205 273 229 q 399 155 330 155 q 497 204 465 155 l 743 204 q 652 64 718 117 q 527 0 602 23 q 386 -21 458 -21 q 186 28 275 -21 q 44 195 88 83 q 16 338 16 264 q 140 606 16 504 q 378 688 238 688 q 621 605 521 688 q 758 269 758 492 m 500 408 q 479 473 496 449 q 389 516 448 516 q 296 476 331 516 q 270 408 276 452 l 500 408 m 153 948 l 402 948 l 469 736 l 309 736 l 153 948 z "},"ê":{"ha":774,"x_min":16,"x_max":758,"o":"m 758 269 l 267 269 q 292 205 273 229 q 399 155 330 155 q 497 204 465 155 l 743 204 q 652 64 718 117 q 527 0 602 23 q 386 -21 458 -21 q 186 28 275 -21 q 44 195 88 83 q 16 338 16 264 q 140 606 16 504 q 378 688 238 688 q 621 605 521 688 q 758 269 758 492 m 500 408 q 479 473 496 449 q 389 516 448 516 q 296 476 331 516 q 270 408 276 452 l 500 408 m 387 846 l 317 736 l 123 736 l 281 942 l 493 942 l 651 736 l 457 736 l 387 846 z "},"ë":{"ha":774,"x_min":16,"x_max":758,"o":"m 758 269 l 267 269 q 292 205 273 229 q 399 155 330 155 q 497 204 465 155 l 743 204 q 652 64 718 117 q 527 0 602 23 q 386 -21 458 -21 q 186 28 275 -21 q 44 195 88 83 q 16 338 16 264 q 140 606 16 504 q 378 688 238 688 q 621 605 521 688 q 758 269 758 492 m 500 408 q 479 473 496 449 q 389 516 448 516 q 296 476 331 516 q 270 408 276 452 l 500 408 m 347 926 l 347 736 l 157 736 l 157 926 l 347 926 m 618 926 l 618 736 l 428 736 l 428 926 l 618 926 z "},"í":{"ha":317,"x_min":32,"x_max":393,"o":"m 284 667 l 284 0 l 32 0 l 32 667 l 284 667 m 393 948 l 237 736 l 77 736 l 143 948 l 393 948 z "},"ì":{"ha":317,"x_min":-76,"x_max":284,"o":"m 284 667 l 284 0 l 32 0 l 32 667 l 284 667 m -76 948 l 173 948 l 240 736 l 80 736 l -76 948 z "},"î":{"ha":317,"x_min":-106,"x_max":422,"o":"m 285 667 l 285 0 l 33 0 l 33 667 l 285 667 m 159 846 l 88 736 l -106 736 l 52 942 l 264 942 l 422 736 l 229 736 l 159 846 z "},"ï":{"ha":317,"x_min":-41,"x_max":357,"o":"m 285 667 l 285 0 l 33 0 l 33 667 l 285 667 m 149 926 l 149 736 l -41 736 l -41 926 l 149 926 m 357 926 l 357 736 l 168 736 l 168 926 l 357 926 z "},"ñ":{"ha":757,"x_min":32,"x_max":728,"o":"m 268 667 l 268 570 q 340 648 305 624 q 488 688 399 688 q 699 569 639 688 q 728 434 728 514 l 728 0 l 475 0 l 475 382 q 391 477 475 477 q 323 454 353 477 q 283 340 283 422 l 283 0 l 32 0 l 32 667 l 268 667 m 621 928 q 608 831 621 871 q 555 762 592 787 q 472 738 519 738 q 399 752 432 738 l 324 783 q 304 787 316 787 q 264 736 268 787 l 137 736 q 161 847 136 800 q 281 928 203 928 q 349 913 317 928 l 413 884 q 448 876 431 876 q 490 928 484 876 l 621 928 z "},"ó":{"ha":773,"x_min":16,"x_max":758,"o":"m 391 688 q 582 640 492 688 q 722 493 677 588 q 758 333 758 420 q 656 81 758 179 q 526 3 603 30 q 387 -21 459 -21 q 191 27 281 -21 q 51 174 97 78 q 16 332 16 246 q 117 586 16 490 q 391 688 226 688 m 385 512 q 271 335 271 512 q 387 155 271 155 q 503 332 503 155 q 385 512 503 512 m 621 948 l 465 736 l 305 736 l 372 948 l 621 948 z "},"ò":{"ha":773,"x_min":16,"x_max":758,"o":"m 391 688 q 582 640 492 688 q 722 493 677 588 q 758 333 758 420 q 656 81 758 179 q 526 3 603 30 q 387 -21 459 -21 q 191 27 281 -21 q 51 174 97 78 q 16 332 16 246 q 117 586 16 490 q 391 688 226 688 m 385 512 q 271 335 271 512 q 387 155 271 155 q 503 332 503 155 q 385 512 503 512 m 152 948 l 401 948 l 468 736 l 308 736 l 152 948 z "},"ô":{"ha":773,"x_min":16,"x_max":758,"o":"m 391 688 q 582 640 492 688 q 722 493 677 588 q 758 333 758 420 q 656 81 758 179 q 526 3 603 30 q 387 -21 459 -21 q 191 27 281 -21 q 51 174 97 78 q 16 332 16 246 q 117 586 16 490 q 391 688 226 688 m 385 512 q 271 335 271 512 q 387 155 271 155 q 503 332 503 155 q 385 512 503 512 m 387 846 l 316 736 l 122 736 l 280 942 l 492 942 l 650 736 l 456 736 l 387 846 z "},"ö":{"ha":773,"x_min":16,"x_max":758,"o":"m 391 688 q 582 640 492 688 q 722 493 677 588 q 758 333 758 420 q 656 81 758 179 q 526 3 603 30 q 387 -21 459 -21 q 191 27 281 -21 q 51 174 97 78 q 16 332 16 246 q 117 586 16 490 q 391 688 226 688 m 385 512 q 271 335 271 512 q 387 155 271 155 q 503 332 503 155 q 385 512 503 512 m 346 926 l 346 736 l 156 736 l 156 926 l 346 926 m 616 926 l 616 736 l 427 736 l 427 926 l 616 926 z "},"õ":{"ha":773,"x_min":16,"x_max":758,"o":"m 391 688 q 582 640 492 688 q 722 493 677 588 q 758 333 758 420 q 656 81 758 179 q 526 3 603 30 q 387 -21 459 -21 q 191 27 281 -21 q 51 174 97 78 q 16 332 16 246 q 117 586 16 490 q 391 688 226 688 m 385 512 q 271 335 271 512 q 387 155 271 155 q 503 332 503 155 q 385 512 503 512 m 629 928 q 616 831 629 871 q 563 762 600 787 q 480 738 527 738 q 408 752 440 738 l 332 783 q 313 787 324 787 q 273 736 276 787 l 145 736 q 169 847 144 800 q 290 928 211 928 q 357 913 325 928 l 421 884 q 456 876 439 876 q 498 928 492 876 l 629 928 z "},"ú":{"ha":757,"x_min":29,"x_max":725,"o":"m 725 667 l 725 0 l 490 0 l 490 97 q 398 7 446 32 q 279 -22 345 -22 q 140 13 203 -22 q 43 141 64 54 q 29 280 29 195 l 29 667 l 281 667 l 281 325 q 292 238 281 262 q 366 193 312 193 q 453 233 421 193 q 469 269 466 250 q 473 325 473 290 l 473 667 l 725 667 m 613 948 l 457 736 l 297 736 l 363 948 l 613 948 z "},"ù":{"ha":757,"x_min":29,"x_max":725,"o":"m 725 667 l 725 0 l 490 0 l 490 97 q 398 7 446 32 q 279 -22 345 -22 q 140 13 203 -22 q 43 141 64 54 q 29 280 29 195 l 29 667 l 281 667 l 281 325 q 292 238 281 262 q 366 193 312 193 q 453 233 421 193 q 469 269 466 250 q 473 325 473 290 l 473 667 l 725 667 m 144 948 l 393 948 l 460 736 l 300 736 l 144 948 z "},"û":{"ha":757,"x_min":29,"x_max":725,"o":"m 725 667 l 725 0 l 490 0 l 490 97 q 398 7 446 32 q 279 -22 345 -22 q 140 13 203 -22 q 43 141 64 54 q 29 280 29 195 l 29 667 l 281 667 l 281 325 q 292 238 281 262 q 366 193 312 193 q 453 233 421 193 q 469 269 466 250 q 473 325 473 290 l 473 667 l 725 667 m 379 846 l 309 736 l 115 736 l 273 942 l 485 942 l 643 736 l 449 736 l 379 846 z "},"ü":{"ha":757,"x_min":29,"x_max":725,"o":"m 725 667 l 725 0 l 490 0 l 490 97 q 398 7 446 32 q 279 -22 345 -22 q 140 13 203 -22 q 43 141 64 54 q 29 280 29 195 l 29 667 l 281 667 l 281 325 q 292 238 281 262 q 366 193 312 193 q 453 233 421 193 q 469 269 466 250 q 473 325 473 290 l 473 667 l 725 667 m 338 926 l 338 736 l 149 736 l 149 926 l 338 926 m 609 926 l 609 736 l 419 736 l 419 926 l 609 926 z "},"†":{"ha":629,"x_min":18,"x_max":610,"o":"m 418 926 l 418 705 l 610 705 l 610 530 l 418 530 l 418 -148 l 211 -148 l 211 530 l 18 530 l 18 705 l 211 705 l 211 926 l 418 926 z "},"°":{"ha":574,"x_min":93,"x_max":482,"o":"m 290 935 q 425 878 368 935 q 482 741 482 821 q 425 603 482 661 q 288 546 369 546 q 150 603 207 546 q 93 741 93 661 q 150 878 93 822 q 290 935 208 935 m 286 831 q 224 805 250 831 q 197 741 197 779 q 224 677 197 704 q 288 650 250 650 q 351 677 326 650 q 378 741 378 704 q 351 805 378 779 q 286 831 324 831 z "},"¢":{"ha":715,"x_min":16,"x_max":713,"o":"m 436 122 l 436 314 q 465 355 456 333 q 475 408 472 370 l 713 408 q 713 398 713 406 q 589 180 708 263 q 436 122 518 133 m 320 122 q 178 172 239 134 q 50 315 93 224 q 16 466 16 387 q 83 673 16 581 q 272 799 150 766 q 320 809 290 803 l 320 618 q 264 462 264 577 q 287 350 264 397 q 320 313 296 331 l 320 122 m 436 809 q 713 547 682 776 l 475 547 q 436 623 467 602 l 436 809 m 417 -1 l 338 -1 l 338 926 l 417 926 l 417 -1 z "},"£":{"ha":800,"x_min":9,"x_max":792,"o":"m 118 384 l 397 384 q 370 319 388 347 q 283 242 342 278 q 394 265 352 265 q 511 239 436 265 q 577 225 551 225 q 682 292 625 225 l 776 62 q 575 -23 682 -23 q 463 -4 525 -23 q 378 27 447 1 q 268 54 309 54 q 145 0 213 54 l 9 203 q 121 358 121 269 q 118 384 121 370 m 48 521 q 12 637 12 576 q 57 783 12 712 q 406 949 160 949 q 741 798 648 949 q 792 592 782 732 l 532 592 q 510 680 528 654 q 416 726 478 726 q 349 707 377 726 q 307 635 307 680 q 320 586 307 608 q 365 521 322 583 l 48 521 m 495 503 l 495 403 l 9 403 l 9 503 l 495 503 z "},"§":{"ha":762,"x_min":16,"x_max":747,"o":"m 82 100 l 290 100 q 379 20 294 20 q 438 39 417 20 q 455 77 455 55 q 437 117 455 99 q 387 144 424 130 l 228 210 q 124 258 151 242 q 16 429 16 323 q 147 613 16 551 q 121 651 128 637 q 104 730 104 685 q 180 882 104 822 q 391 947 264 947 q 615 867 534 947 q 677 746 665 817 q 683 699 681 726 l 477 699 q 465 745 476 727 q 397 779 443 779 q 352 765 370 779 q 332 725 332 749 q 355 684 332 701 q 410 659 367 676 l 574 591 q 701 512 665 554 q 747 389 747 458 q 677 243 747 298 q 629 210 661 231 q 664 161 653 180 q 684 75 684 124 q 618 -90 684 -23 q 387 -169 539 -169 q 134 -71 214 -169 q 82 100 83 -8 m 260 416 l 452 335 q 498 322 483 322 q 527 337 515 322 q 535 360 535 348 q 486 408 535 387 l 314 481 q 257 497 275 497 q 234 488 244 497 q 220 458 220 476 q 260 416 220 433 z "},"•":{"ha":926,"x_min":272,"x_max":657,"o":"m 467 663 q 600 607 544 663 q 657 471 657 551 q 600 334 657 391 q 465 278 544 278 q 329 334 385 278 q 272 470 272 391 q 329 607 272 552 q 467 663 387 663 z "},"¶":{"ha":749,"x_min":18,"x_max":712,"o":"m 289 -130 l 289 350 q 130 393 191 352 q 47 492 76 429 q 18 634 18 556 q 60 805 18 732 q 201 912 107 885 q 330 926 247 926 l 712 926 l 712 -130 l 536 -130 l 536 747 l 465 747 l 465 -130 l 289 -130 z "},"ß":{"ha":777,"x_min":32,"x_max":764,"o":"m 32 0 l 32 633 q 88 831 32 755 q 376 952 178 952 q 604 895 515 952 q 681 816 652 863 q 717 692 717 758 q 601 515 717 574 q 685 478 655 504 q 764 284 764 410 q 677 73 764 157 q 463 -10 591 -10 q 345 5 416 -10 l 345 193 q 387 188 372 188 q 462 210 432 188 q 513 319 513 246 q 474 410 513 378 q 383 439 438 439 q 345 437 371 439 l 345 579 q 368 578 360 578 q 441 600 414 578 q 475 669 475 625 q 452 728 475 705 q 382 755 425 755 q 295 700 319 755 q 284 621 284 675 l 284 0 l 32 0 z "},"®":{"ha":997,"x_min":18,"x_max":979,"o":"m 417 385 l 417 209 l 265 209 l 265 726 l 510 726 q 650 704 600 726 q 740 570 740 665 q 658 445 740 484 q 710 400 697 422 q 734 283 732 362 q 740 231 735 244 q 751 209 743 222 l 572 209 q 564 278 566 234 q 545 361 562 339 q 479 385 524 385 l 417 385 m 417 593 l 417 503 l 505 503 q 543 507 532 503 q 568 550 568 517 q 541 589 568 581 q 505 593 531 593 l 417 593 m 506 945 q 750 873 635 945 q 926 682 865 802 q 979 463 979 578 q 908 212 979 327 q 718 34 838 96 q 499 -19 614 -19 q 250 52 365 -19 q 71 243 134 122 q 18 462 18 347 q 90 715 18 599 q 282 892 159 830 q 506 945 385 945 m 496 829 q 313 776 399 829 q 180 630 226 722 q 140 463 140 551 q 247 203 140 311 q 499 96 352 96 q 751 203 647 96 q 857 462 857 311 q 804 654 857 566 q 662 789 752 741 q 496 829 586 829 z "},"©":{"ha":997,"x_min":18,"x_max":979,"o":"m 767 410 q 710 275 757 327 q 511 192 637 192 q 326 254 402 192 q 230 470 230 334 q 317 675 230 596 q 502 744 393 744 q 658 701 589 744 q 762 530 753 641 l 592 530 q 505 606 583 606 q 441 578 465 606 q 406 465 406 534 q 440 358 406 395 q 510 330 467 330 q 592 410 583 330 l 767 410 m 506 945 q 750 873 635 945 q 926 682 865 802 q 979 463 979 578 q 908 212 979 327 q 718 34 838 96 q 499 -19 614 -19 q 250 52 365 -19 q 71 243 134 122 q 18 462 18 347 q 90 715 18 599 q 282 892 159 830 q 506 945 385 945 m 496 829 q 313 776 399 829 q 180 630 226 722 q 140 463 140 551 q 247 203 140 311 q 499 96 352 96 q 751 203 647 96 q 857 462 857 311 q 804 654 857 566 q 662 789 752 741 q 496 829 586 829 z "},"™":{"ha":1069,"x_min":20,"x_max":1036,"o":"m 438 764 l 525 764 l 525 926 l 667 926 l 738 661 l 810 926 l 1036 926 l 1036 399 l 876 399 l 876 671 l 802 399 l 671 399 l 599 671 l 599 399 l 438 399 l 438 764 m 350 782 l 350 398 l 177 398 l 177 782 l 20 782 l 20 926 l 506 926 l 506 782 l 350 782 z "},"´":{"ha":694,"x_min":266,"x_max":582,"o":"m 582 948 l 426 736 l 266 736 l 332 948 l 582 948 z "},"¨":{"ha":694,"x_min":117,"x_max":578,"o":"m 307 926 l 307 736 l 117 736 l 117 926 l 307 926 m 578 926 l 578 736 l 388 736 l 388 926 l 578 926 z "},"≠":{"ha":694,"x_min":46,"x_max":648,"o":"m 345 703 l 448 890 l 619 792 l 566 703 l 648 703 l 648 467 l 471 467 l 421 382 l 647 382 l 647 146 l 336 146 l 252 -1 l 81 98 l 114 146 l 46 146 l 46 382 l 199 382 l 250 467 l 47 467 l 47 703 l 345 703 z "},"Æ":{"ha":1331,"x_min":3,"x_max":1318,"o":"m 859 365 l 859 241 l 1318 241 l 1318 0 l 580 0 l 580 130 l 313 130 l 275 0 l 3 0 l 321 926 l 1305 926 l 1305 685 l 859 685 l 859 568 l 1235 568 l 1235 365 l 859 365 m 580 696 l 488 696 l 372 319 l 580 319 l 580 696 z "},"Ø":{"ha":973,"x_min":16,"x_max":958,"o":"m 768 865 l 596 678 q 486 718 547 718 q 342 637 393 718 q 298 465 298 567 q 310 366 298 416 l 112 150 q 16 465 16 275 q 179 844 16 710 q 487 947 302 947 q 768 865 648 947 m 861 776 q 958 461 958 650 q 795 81 958 216 q 487 -21 671 -21 q 203 62 324 -21 l 376 250 q 487 208 425 208 q 631 289 581 208 q 675 464 675 359 q 663 561 675 513 l 861 776 m 872 951 l 941 888 l 96 -26 l 33 37 l 872 951 z "},"∞":{"ha":926,"x_min":23,"x_max":903,"o":"m 467 353 q 411 301 437 321 q 250 244 339 244 q 85 310 151 244 q 23 471 23 372 q 90 637 23 574 q 249 698 155 698 q 459 591 360 698 q 675 698 557 698 q 850 623 783 698 q 903 472 903 562 q 840 310 903 372 q 677 244 775 244 q 521 302 589 244 q 467 353 499 320 m 553 471 l 555 468 q 647 407 600 407 q 693 425 673 407 q 714 471 714 444 q 693 517 714 498 q 647 534 673 534 q 576 499 610 534 q 558 478 567 490 q 553 471 553 471 m 373 471 q 370 476 372 473 l 368 478 q 277 535 326 535 q 232 518 250 535 q 212 471 212 500 q 232 425 212 442 q 279 408 251 408 q 350 443 317 408 q 373 471 374 469 z "},"±":{"ha":880,"x_min":70,"x_max":810,"o":"m 361 653 l 361 940 l 518 940 l 518 653 l 810 653 l 810 498 l 518 498 l 518 210 l 361 210 l 361 498 l 70 498 l 70 653 l 361 653 m 810 155 l 810 0 l 70 0 l 70 155 l 810 155 z "},"≤":{"ha":694,"x_min":46,"x_max":648,"o":"m 648 947 l 648 683 l 355 613 l 648 545 l 648 281 l 46 496 l 46 732 l 648 947 m 648 246 l 648 -2 l 46 -2 l 46 246 l 648 246 z "},"≥":{"ha":694,"x_min":46,"x_max":648,"o":"m 46 947 l 648 732 l 648 496 l 46 281 l 46 545 l 339 613 l 46 683 l 46 947 m 46 246 l 648 246 l 648 -2 l 46 -2 l 46 246 z "},"¥":{"ha":880,"x_min":24,"x_max":856,"o":"m 306 172 l 570 172 l 570 0 l 306 0 l 306 172 m 306 316 l 306 370 l 570 370 l 570 316 l 306 316 m 258 517 l 24 926 l 307 926 l 438 635 l 568 926 l 856 926 l 618 517 l 258 517 m 127 191 l 127 298 l 753 298 l 753 191 l 127 191 m 127 389 l 127 498 l 753 498 l 753 389 l 127 389 z "},"µ":{"ha":937,"x_min":121,"x_max":817,"o":"m 373 -218 l 121 -218 l 121 667 l 373 667 l 373 325 q 384 238 373 262 q 458 193 404 193 q 545 233 513 193 q 561 269 557 250 q 564 325 564 290 l 564 667 l 817 667 l 817 0 l 582 0 l 582 97 q 520 8 553 35 q 443 -19 486 -19 q 373 14 406 -19 l 373 -218 z "},"∂":{"ha":694,"x_min":9,"x_max":686,"o":"m 62 709 l 92 914 q 517 766 365 888 q 663 549 627 677 q 686 378 686 471 q 585 83 686 185 q 335 -14 490 -14 q 80 100 170 -14 q 9 309 9 192 q 105 528 9 446 q 302 595 184 595 q 433 561 362 595 q 62 709 374 690 m 346 398 q 280 370 307 398 q 251 298 251 340 q 279 227 251 257 q 349 197 307 197 q 416 227 388 197 q 444 298 444 258 q 415 369 444 340 q 346 398 387 398 z "},"∑":{"ha":926,"x_min":46,"x_max":899,"o":"m 886 1042 l 886 661 l 646 661 l 616 795 l 347 795 l 676 365 l 349 -101 l 628 -101 l 645 43 l 899 43 l 899 -347 l 46 -347 l 46 -64 l 359 364 l 46 757 l 46 1042 l 886 1042 z "},"∏":{"ha":926,"x_min":18,"x_max":908,"o":"m 18 1042 l 908 1042 l 908 828 l 810 828 l 810 -134 l 908 -134 l 908 -347 l 492 -347 l 492 -134 l 571 -134 l 571 828 l 355 828 l 355 -134 l 433 -134 l 433 -347 l 18 -347 l 18 -134 l 118 -134 l 118 828 l 18 828 l 18 1042 z "},"π":{"ha":928,"x_min":28,"x_max":901,"o":"m 130 0 l 130 470 l 28 470 l 28 667 l 901 667 l 901 470 l 799 470 l 799 0 l 549 0 l 549 470 l 380 470 l 380 0 l 130 0 z "},"∫":{"ha":694,"x_min":13,"x_max":681,"o":"m 13 -334 l 55 -79 q 117 -93 93 -93 q 176 -73 152 -93 q 202 -4 201 -51 q 203 122 202 9 l 203 522 q 203 692 203 660 q 233 869 205 808 q 385 1015 280 972 q 542 1042 448 1042 q 681 1028 594 1042 l 640 774 q 575 787 602 787 q 505 751 526 787 q 492 663 492 729 l 492 94 q 485 -85 492 -32 q 353 -297 468 -222 q 151 -347 276 -347 q 38 -338 84 -347 q 13 -334 22 -334 z "},"ª":{"ha":502,"x_min":12,"x_max":490,"o":"m 291 409 q 164 358 247 358 q 49 395 91 358 q 12 477 12 427 q 75 579 12 545 q 191 611 106 596 q 273 631 259 623 q 288 652 288 639 q 241 680 288 680 q 186 644 188 680 l 31 644 q 73 741 35 707 q 236 785 123 785 q 422 728 374 785 q 451 626 451 694 l 451 456 q 461 399 451 417 q 490 370 467 387 l 304 370 q 291 409 297 383 m 290 551 q 212 522 269 535 q 168 488 168 511 q 211 460 168 460 q 275 488 254 460 q 290 540 290 507 l 290 551 z "},"º":{"ha":493,"x_min":12,"x_max":481,"o":"m 250 785 q 417 724 350 785 q 481 572 481 665 q 417 419 481 479 q 247 358 350 358 q 77 419 144 358 q 12 571 12 479 q 77 724 12 666 q 250 785 145 785 m 246 672 q 180 573 180 672 q 248 471 180 471 q 315 572 315 471 q 246 672 315 672 z "},"Ω":{"ha":926,"x_min":32,"x_max":895,"o":"m 39 0 l 39 233 l 189 233 q 93 315 132 269 q 32 514 32 389 q 87 730 32 629 q 261 902 150 844 q 461 949 351 949 q 779 815 654 949 q 895 517 895 692 q 829 308 895 387 q 739 233 798 272 l 888 233 l 888 0 l 505 0 l 505 214 q 591 299 566 243 q 623 465 623 367 q 590 631 623 564 q 539 690 572 667 q 465 713 506 713 q 364 669 408 713 q 304 466 304 609 q 422 214 304 270 l 422 0 l 39 0 z "},"æ":{"ha":1211,"x_min":9,"x_max":1194,"o":"m 1194 271 l 704 271 q 722 214 709 235 q 838 155 760 155 q 935 197 903 155 l 1181 197 q 1107 83 1158 130 q 831 -21 994 -21 q 644 20 734 -21 q 569 69 603 39 q 468 10 515 30 q 286 -21 389 -21 q 109 16 172 -21 q 9 182 9 74 q 92 336 9 283 q 284 394 150 372 q 437 429 413 416 q 463 471 463 443 q 433 519 463 501 q 375 534 411 534 q 294 501 319 534 q 277 444 281 483 l 41 444 q 89 589 43 534 q 373 688 171 688 q 530 669 465 688 q 606 629 572 657 q 819 688 701 688 q 1084 579 979 688 q 1194 302 1190 469 q 1194 271 1194 296 m 937 408 q 827 515 922 515 q 734 474 769 515 q 707 408 713 450 l 937 408 m 467 313 q 458 307 463 311 q 328 258 420 277 q 264 235 281 248 q 247 196 247 220 q 267 151 247 169 q 328 130 289 130 q 438 186 399 130 q 467 313 467 227 z "},"ø":{"ha":773,"x_min":16,"x_max":758,"o":"m 185 31 l 316 180 q 387 155 351 155 q 503 330 503 155 q 499 388 503 359 l 665 576 q 758 333 758 477 q 656 81 758 179 q 526 3 603 30 q 387 -21 459 -21 q 185 31 280 -21 m 106 92 q 16 334 16 191 q 117 586 16 488 q 247 664 170 637 q 386 688 314 688 q 583 639 492 688 l 454 490 q 387 512 420 512 q 270 337 270 512 q 273 283 270 313 l 106 92 m 716 663 l 106 -31 l 59 9 l 667 706 l 716 663 z "},"¿":{"ha":725,"x_min":16,"x_max":720,"o":"m 264 593 l 492 593 q 495 528 495 549 q 464 415 495 456 q 373 351 439 382 q 310 312 326 328 q 290 267 290 293 q 319 208 290 231 q 368 193 340 193 q 437 232 416 193 q 450 288 450 255 q 449 312 450 296 l 720 312 q 688 163 715 224 q 563 30 646 74 q 352 -18 471 -18 q 118 57 206 -18 q 16 268 16 143 q 62 388 16 336 q 170 464 94 425 q 252 527 237 498 q 264 586 264 549 q 264 593 264 587 m 245 664 l 245 926 l 509 926 l 509 664 l 245 664 z "},"¡":{"ha":352,"x_min":43,"x_max":308,"o":"m 43 0 l 43 210 l 110 573 l 241 573 l 308 210 l 308 0 l 43 0 m 43 657 l 43 926 l 308 926 l 308 657 l 43 657 z "},"¬":{"ha":694,"x_min":46,"x_max":648,"o":"m 372 0 l 372 170 l 46 170 l 46 418 l 648 418 l 648 0 l 372 0 z "},"√":{"ha":926,"x_min":0,"x_max":926,"o":"m 926 1148 l 926 927 l 716 927 l 507 0 l 191 0 l 132 317 l 0 317 l 0 538 l 282 538 l 307 422 q 324 220 324 306 l 340 220 q 348 320 342 266 q 398 621 370 505 l 520 1148 l 926 1148 z "},"ƒ":{"ha":880,"x_min":59,"x_max":783,"o":"m 589 544 l 517 174 q 476 15 496 64 q 330 -146 433 -91 q 138 -189 248 -189 q 59 -182 84 -189 l 96 3 q 120 0 111 0 q 210 20 173 0 q 278 147 258 45 l 354 544 l 589 544 m 616 681 l 380 681 l 399 777 q 441 887 413 845 q 572 990 488 956 q 726 1019 643 1019 q 783 1016 762 1019 l 753 850 q 690 840 715 850 q 630 754 645 821 l 616 681 m 705 662 l 705 562 l 267 562 l 267 662 l 705 662 z "},"≈":{"ha":694,"x_min":9,"x_max":686,"o":"m 144 484 l 9 578 q 71 702 41 661 q 228 793 136 793 q 324 772 264 793 q 413 739 346 764 q 476 723 454 723 q 551 779 516 723 l 686 684 q 614 547 647 588 q 468 467 551 467 q 296 517 429 467 q 220 538 241 538 q 144 484 180 538 m 144 136 l 9 231 q 71 353 41 312 q 229 445 136 445 q 324 425 264 445 q 413 393 343 418 q 476 378 454 378 q 551 431 516 378 l 686 336 q 614 199 647 240 q 468 119 551 119 q 296 168 429 119 q 220 189 241 189 q 144 136 180 189 z "},"∆":{"ha":927,"x_min":14,"x_max":914,"o":"m 14 0 l 323 926 l 602 926 l 914 0 l 14 0 m 353 233 l 568 233 l 464 645 l 353 233 z "},"«":{"ha":395,"x_min":16,"x_max":380,"o":"m 164 330 l 164 346 l 250 414 l 250 532 l 380 640 l 380 423 l 273 338 l 380 249 l 380 35 l 250 143 l 250 258 l 164 330 m 16 214 l 16 460 l 232 640 l 232 423 l 125 338 l 232 249 l 232 35 l 16 214 z "},"»":{"ha":395,"x_min":16,"x_max":380,"o":"m 232 347 l 232 331 l 146 261 l 146 144 l 16 35 l 16 252 l 123 339 l 16 427 l 16 640 l 146 532 l 146 418 l 232 347 m 380 461 l 380 215 l 164 35 l 164 252 l 271 339 l 164 427 l 164 640 l 380 461 z "},"…":{"ha":1367,"x_min":65,"x_max":1303,"o":"m 330 269 l 330 0 l 65 0 l 65 269 l 330 269 m 817 269 l 817 0 l 552 0 l 552 269 l 817 269 m 1303 269 l 1303 0 l 1038 0 l 1038 269 l 1303 269 z "},"À":{"ha":964,"x_min":3,"x_max":961,"o":"m 325 132 l 280 0 l 3 0 l 342 926 l 622 926 l 961 0 l 676 0 l 633 132 l 325 132 m 389 323 l 570 323 l 484 595 l 389 323 m 242 1019 l 505 1019 l 564 840 l 397 840 l 242 1019 z "},"Ã":{"ha":964,"x_min":3,"x_max":961,"o":"m 300 808 l 385 808 q 408 860 385 860 q 495 826 415 860 q 576 810 532 810 q 657 831 617 810 l 961 0 l 676 0 l 633 132 l 325 132 l 280 0 l 3 0 l 300 808 m 389 323 l 570 323 l 484 595 l 389 323 m 724 1019 q 710 923 724 962 q 658 853 695 878 q 575 829 622 829 q 503 843 535 829 l 427 876 q 408 879 419 879 q 368 827 370 879 l 240 827 q 264 938 239 892 q 385 1019 305 1019 q 452 1005 421 1019 l 516 975 q 551 967 534 967 q 593 1019 587 967 l 724 1019 z "},"Õ":{"ha":973,"x_min":16,"x_max":958,"o":"m 229 880 q 226 833 226 852 q 227 808 226 825 l 390 808 q 413 860 390 860 q 500 826 420 860 q 578 810 536 810 q 722 892 673 810 q 795 844 763 871 q 958 463 958 709 q 795 81 958 216 q 487 -21 671 -21 q 179 81 303 -21 q 16 463 16 216 q 229 880 16 747 m 484 718 q 342 637 393 718 q 298 463 298 567 q 342 289 298 359 q 487 208 393 208 q 631 289 581 208 q 675 462 675 359 q 631 637 675 568 q 484 718 580 718 m 729 1019 q 715 923 728 962 q 663 853 700 878 q 580 829 627 829 q 507 843 540 829 l 432 876 q 412 879 423 879 q 372 827 375 879 l 245 827 q 269 938 244 892 q 389 1019 310 1019 q 457 1005 426 1019 l 521 975 q 555 967 538 967 q 598 1019 591 967 l 729 1019 z "},"Œ":{"ha":1408,"x_min":16,"x_max":1395,"o":"m 1395 241 l 1395 0 l 676 0 l 676 43 q 479 -21 602 -21 q 186 83 309 -21 q 70 235 115 142 q 16 469 16 345 q 129 783 16 647 q 274 900 192 858 q 473 947 368 947 q 676 880 595 947 l 676 926 l 1395 926 l 1395 685 l 939 685 l 939 583 l 1318 583 l 1318 365 l 939 365 l 939 241 l 1395 241 m 481 715 q 345 645 393 715 q 298 463 298 578 q 359 264 298 332 q 484 211 407 211 q 623 280 576 211 q 672 469 672 353 q 613 660 672 595 q 481 715 562 715 z "},"œ":{"ha":1257,"x_min":16,"x_max":1241,"o":"m 1241 273 l 751 273 q 779 201 755 229 q 885 155 819 155 q 982 199 947 155 l 1227 199 q 1147 79 1205 131 q 1029 7 1097 34 q 881 -21 957 -21 q 629 58 734 -21 q 389 -21 526 -21 q 127 75 231 -21 q 16 334 16 177 q 117 586 16 485 q 384 688 218 688 q 629 615 522 688 q 862 688 729 688 q 1103 605 1002 688 q 1231 387 1203 524 q 1241 273 1240 341 m 982 410 q 960 476 980 451 q 871 517 927 517 q 780 475 814 517 q 753 410 760 450 l 982 410 m 385 515 q 270 334 270 515 q 386 153 270 153 q 503 333 503 153 q 385 515 503 515 z "},"–":{"ha":692,"x_min":0,"x_max":692,"o":"m 692 500 l 692 251 l 0 251 l 0 500 l 692 500 z "},"—":{"ha":1118,"x_min":0,"x_max":1118,"o":"m 1118 500 l 1118 251 l 0 251 l 0 500 l 1118 500 z "},"“":{"ha":435,"x_min":16,"x_max":418,"o":"m 197 758 q 215 822 203 794 q 263 840 233 831 l 263 890 q 418 965 323 947 l 418 854 q 351 812 378 842 q 317 739 325 781 l 418 739 l 418 511 l 263 511 l 263 758 l 197 758 m 16 511 l 16 692 q 76 875 17 807 q 245 965 140 946 l 245 854 q 144 739 160 831 l 245 739 l 245 511 l 16 511 z "},"”":{"ha":434,"x_min":16,"x_max":418,"o":"m 238 679 q 220 615 231 643 q 172 597 202 606 l 172 547 q 16 472 112 490 l 16 583 q 84 625 57 595 q 117 697 109 656 l 16 697 l 16 926 l 172 926 l 172 679 l 238 679 m 418 926 l 418 745 q 359 562 418 629 q 190 471 296 490 l 190 583 q 291 697 275 605 l 190 697 l 190 926 l 418 926 z "},"‘":{"ha":260,"x_min":16,"x_max":245,"o":"m 16 511 l 16 692 q 76 875 17 807 q 245 965 140 946 l 245 854 q 144 739 160 831 l 245 739 l 245 511 l 16 511 z "},"’":{"ha":250,"x_min":16,"x_max":233,"o":"m 233 926 l 233 753 q 177 580 233 644 q 16 494 117 513 l 16 600 q 112 709 97 622 l 16 709 l 16 926 l 233 926 z "},"÷":{"ha":880,"x_min":70,"x_max":810,"o":"m 810 555 l 810 399 l 70 399 l 70 555 l 810 555 m 436 295 q 507 262 477 295 q 532 195 532 234 q 504 125 532 153 q 435 97 476 97 q 368 123 397 97 q 334 197 334 153 q 363 265 334 237 q 436 295 394 295 m 436 857 q 507 825 477 857 q 532 758 532 797 q 504 688 532 716 q 435 659 476 659 q 368 685 397 659 q 334 759 334 715 q 363 827 334 800 q 436 857 395 857 z "},"◊":{"ha":926,"x_min":102,"x_max":824,"o":"m 463 962 l 824 463 l 463 -36 l 102 463 l 463 962 m 463 839 l 189 463 l 463 87 l 736 463 l 463 839 z "},"ÿ":{"ha":767,"x_min":3,"x_max":764,"o":"m 764 667 l 558 58 q 424 -170 500 -111 q 288 -212 370 -212 q 225 -213 271 -213 l 91 -213 l 91 -18 q 156 -19 151 -19 q 235 31 235 -19 q 219 98 235 56 l 3 667 l 268 667 l 384 255 l 500 667 l 764 667 m 343 926 l 343 736 l 153 736 l 153 926 l 343 926 m 614 926 l 614 736 l 424 736 l 424 926 l 614 926 z "},"Ÿ":{"ha":960,"x_min":3,"x_max":958,"o":"m 617 335 l 617 0 l 339 0 l 339 335 l 3 926 l 311 926 l 479 570 l 645 926 l 958 926 l 617 335 m 440 1019 l 440 829 l 250 829 l 250 1019 l 440 1019 m 711 1019 l 711 829 l 521 829 l 521 1019 l 711 1019 z "},"∕":{"ha":75,"x_min":-250,"x_max":325,"o":"m 325 926 l -68 0 l -250 0 l 142 926 l 325 926 z "},"¤":{"ha":787,"x_min":27,"x_max":760,"o":"m 669 111 l 545 233 q 394 189 474 189 q 242 233 313 189 l 119 111 l 27 202 l 151 325 q 106 479 106 401 q 151 629 106 556 l 27 752 l 119 844 l 242 720 q 394 765 317 765 q 546 720 471 765 l 669 844 l 760 752 l 637 629 q 682 479 682 556 q 637 325 682 401 l 760 202 l 669 111 m 393 585 q 317 553 349 585 q 286 477 286 522 q 317 400 286 432 q 394 368 349 368 q 471 400 439 368 q 503 476 503 432 q 471 553 503 522 q 393 585 438 585 z "},"‹":{"ha":248,"x_min":16,"x_max":232,"o":"m 16 214 l 16 460 l 232 640 l 232 423 l 125 338 l 232 249 l 232 35 l 16 214 z "},"›":{"ha":248,"x_min":16,"x_max":232,"o":"m 232 461 l 232 215 l 16 35 l 16 252 l 123 337 l 16 427 l 16 640 l 232 461 z "},"":{"ha":768,"x_min":7,"x_max":736,"o":"m 736 667 l 736 0 l 484 0 l 484 517 l 352 517 l 352 0 l 100 0 l 100 517 l 7 517 l 7 667 l 100 667 l 100 698 q 349 928 100 928 q 446 926 371 928 l 446 749 q 422 752 431 752 q 365 731 380 752 q 352 683 352 713 l 352 667 l 736 667 m 736 926 l 736 746 l 484 746 l 484 926 l 736 926 z "},"":{"ha":768,"x_min":7,"x_max":736,"o":"m 352 517 l 352 0 l 100 0 l 100 517 l 7 517 l 7 667 l 100 667 l 100 698 q 349 928 100 928 q 446 926 371 928 l 446 749 q 422 752 431 752 q 365 731 380 752 q 352 683 352 713 l 352 667 l 446 667 l 446 517 l 352 517 m 736 926 l 736 0 l 484 0 l 484 926 l 736 926 z "},"‡":{"ha":629,"x_min":18,"x_max":610,"o":"m 418 926 l 418 705 l 610 705 l 610 530 l 418 530 l 418 322 l 610 322 l 610 147 l 418 147 l 418 -148 l 211 -148 l 211 147 l 18 147 l 18 322 l 211 322 l 211 530 l 18 530 l 18 705 l 211 705 l 211 926 l 418 926 z "},"∙":{"ha":414,"x_min":75,"x_max":340,"o":"m 340 481 l 340 213 l 75 213 l 75 481 l 340 481 z "},"‚":{"ha":250,"x_min":16,"x_max":233,"o":"m 233 217 l 233 45 q 177 -129 233 -65 q 16 -214 117 -196 l 16 -109 q 112 0 97 -87 l 16 0 l 16 217 l 233 217 z "},"„":{"ha":434,"x_min":16,"x_max":418,"o":"m 238 -18 q 220 -82 231 -55 q 172 -100 202 -92 l 172 -151 q 16 -226 112 -208 l 16 -114 q 84 -72 57 -102 q 117 0 109 -41 l 16 0 l 16 229 l 172 229 l 172 -18 l 238 -18 m 418 229 l 418 47 q 359 -136 418 -68 q 190 -226 296 -207 l 190 -115 q 291 0 275 -92 l 190 0 l 190 229 l 418 229 z "},"‰":{"ha":1410,"x_min":18,"x_max":1392,"o":"m 918 98 q 709 -17 845 -17 q 543 49 610 -17 q 463 255 463 125 q 530 439 463 367 q 713 517 602 517 q 918 404 846 517 q 881 255 881 338 q 918 98 881 170 m 709 395 q 625 248 625 395 q 711 104 625 104 q 761 121 739 104 q 796 251 796 150 q 772 364 796 326 q 709 395 753 395 m 1151 517 q 1301 465 1236 517 q 1392 249 1392 392 q 1329 64 1392 136 q 1145 -17 1259 -17 q 979 49 1046 -17 q 899 254 899 125 q 966 439 899 368 q 1151 517 1040 517 m 1145 395 q 1061 248 1061 395 q 1147 104 1061 104 q 1197 121 1175 104 q 1232 251 1232 150 q 1208 364 1232 326 q 1145 395 1190 395 m 599 511 q 516 452 549 488 q 444 255 444 374 q 454 172 444 216 l 382 0 l 199 0 l 374 412 q 463 478 426 435 q 529 673 529 555 q 519 758 529 714 l 591 926 l 774 926 l 599 511 m 270 943 q 419 891 355 943 q 510 675 510 818 q 448 490 510 562 q 264 409 378 409 q 98 475 165 409 q 18 680 18 551 q 85 865 18 794 q 270 943 159 943 m 263 821 q 180 674 180 821 q 266 530 180 530 q 316 547 294 530 q 351 677 351 576 q 328 790 351 752 q 263 821 308 821 z "},"Â":{"ha":964,"x_min":3,"x_max":961,"o":"m 325 132 l 280 0 l 3 0 l 342 926 l 622 926 l 961 0 l 676 0 l 633 132 l 325 132 m 389 323 l 570 323 l 484 595 l 389 323 m 482 924 l 412 812 l 218 812 l 376 1019 l 588 1019 l 746 812 l 552 812 l 482 924 z "},"Ê":{"ha":840,"x_min":32,"x_max":827,"o":"m 310 365 l 310 241 l 827 241 l 827 0 l 32 0 l 32 926 l 814 926 l 814 685 l 310 685 l 310 568 l 745 568 l 745 365 l 310 365 m 420 924 l 349 812 l 155 812 l 313 1019 l 526 1019 l 684 812 l 490 812 l 420 924 z "},"Á":{"ha":964,"x_min":3,"x_max":961,"o":"m 325 132 l 280 0 l 3 0 l 342 926 l 622 926 l 961 0 l 676 0 l 633 132 l 325 132 m 389 323 l 570 323 l 484 595 l 389 323 m 722 1019 l 567 840 l 399 840 l 459 1019 l 722 1019 z "},"Ë":{"ha":840,"x_min":32,"x_max":827,"o":"m 310 365 l 310 241 l 827 241 l 827 0 l 32 0 l 32 926 l 814 926 l 814 685 l 310 685 l 310 568 l 745 568 l 745 365 l 310 365 m 380 1019 l 380 829 l 190 829 l 190 1019 l 380 1019 m 650 1019 l 650 829 l 460 829 l 460 1019 l 650 1019 z "},"È":{"ha":840,"x_min":32,"x_max":827,"o":"m 310 365 l 310 241 l 827 241 l 827 0 l 32 0 l 32 926 l 814 926 l 814 685 l 310 685 l 310 568 l 745 568 l 745 365 l 310 365 m 180 1019 l 442 1019 l 502 840 l 334 840 l 180 1019 z "},"Í":{"ha":342,"x_min":32,"x_max":410,"o":"m 310 926 l 310 0 l 32 0 l 32 926 l 310 926 m 410 1019 l 256 840 l 88 840 l 148 1019 l 410 1019 z "},"Î":{"ha":342,"x_min":-93,"x_max":435,"o":"m 311 926 l 311 0 l 33 0 l 33 926 l 311 926 m 172 924 l 101 812 l -93 812 l 65 1019 l 277 1019 l 435 812 l 241 812 l 172 924 z "},"Ï":{"ha":342,"x_min":-9,"x_max":351,"o":"m 310 810 l 310 0 l 32 0 l 32 810 l 310 810 m 162 1019 l 162 829 l -9 829 l -9 1019 l 162 1019 m 351 1019 l 351 829 l 180 829 l 180 1019 l 351 1019 z "},"Ì":{"ha":342,"x_min":-68,"x_max":311,"o":"m 311 926 l 311 0 l 33 0 l 33 926 l 311 926 m -68 1019 l 194 1019 l 254 840 l 86 840 l -68 1019 z "},"Ó":{"ha":973,"x_min":16,"x_max":958,"o":"m 492 947 q 795 844 670 947 q 958 463 958 711 q 795 81 958 216 q 487 -21 671 -21 q 179 81 303 -21 q 16 461 16 216 q 179 844 16 715 q 492 947 307 947 m 484 718 q 342 637 393 718 q 298 463 298 567 q 342 289 298 359 q 487 208 393 208 q 631 289 581 208 q 675 462 675 359 q 631 637 675 568 q 484 718 580 718 m 726 1019 l 572 840 l 404 840 l 464 1019 l 726 1019 z "},"Ô":{"ha":973,"x_min":16,"x_max":958,"o":"m 492 947 q 795 844 670 947 q 958 463 958 711 q 795 81 958 216 q 487 -21 671 -21 q 179 81 303 -21 q 16 461 16 216 q 179 844 16 715 q 492 947 307 947 m 484 718 q 342 637 393 718 q 298 463 298 567 q 342 289 298 359 q 487 208 393 208 q 631 289 581 208 q 675 462 675 359 q 631 637 675 568 q 484 718 580 718 m 487 924 l 416 812 l 222 812 l 380 1019 l 593 1019 l 751 812 l 557 812 l 487 924 z "},"Ò":{"ha":973,"x_min":16,"x_max":958,"o":"m 492 947 q 795 844 670 947 q 958 463 958 711 q 795 81 958 216 q 487 -21 671 -21 q 179 81 303 -21 q 16 461 16 216 q 179 844 16 715 q 492 947 307 947 m 484 718 q 342 637 393 718 q 298 463 298 567 q 342 289 298 359 q 487 208 393 208 q 631 289 581 208 q 675 462 675 359 q 631 637 675 568 q 484 718 580 718 m 247 1019 l 509 1019 l 569 840 l 401 840 l 247 1019 z "},"Ú":{"ha":909,"x_min":29,"x_max":881,"o":"m 881 926 l 881 372 q 872 252 881 297 q 734 45 848 124 q 455 -21 638 -21 q 176 45 272 -21 q 38 252 62 124 q 29 372 29 297 l 29 926 l 307 926 l 307 363 q 455 208 307 208 q 583 269 547 208 q 603 363 603 304 l 603 926 l 881 926 m 658 1019 l 503 840 l 336 840 l 395 1019 l 658 1019 z "},"Û":{"ha":909,"x_min":29,"x_max":881,"o":"m 881 926 l 881 372 q 872 252 881 297 q 734 45 848 124 q 455 -21 638 -21 q 176 45 272 -21 q 38 252 62 124 q 29 372 29 297 l 29 926 l 307 926 l 307 363 q 455 208 307 208 q 583 269 547 208 q 603 363 603 304 l 603 926 l 881 926 m 455 924 l 385 812 l 191 812 l 349 1019 l 561 1019 l 719 812 l 525 812 l 455 924 z "},"Ù":{"ha":909,"x_min":29,"x_max":881,"o":"m 881 926 l 881 372 q 872 252 881 297 q 734 45 848 124 q 455 -21 638 -21 q 176 45 272 -21 q 38 252 62 124 q 29 372 29 297 l 29 926 l 307 926 l 307 363 q 455 208 307 208 q 583 269 547 208 q 603 363 603 304 l 603 926 l 881 926 m 262 1019 l 524 1019 l 584 840 l 416 840 l 262 1019 z "},"ı":{"ha":317,"x_min":32,"x_max":284,"o":"m 284 667 l 284 0 l 32 0 l 32 667 l 284 667 z "},"ˆ":{"ha":694,"x_min":83,"x_max":611,"o":"m 347 846 l 277 736 l 83 736 l 241 942 l 453 942 l 611 736 l 417 736 l 347 846 z "},"˜":{"ha":694,"x_min":105,"x_max":590,"o":"m 590 928 q 576 831 590 871 q 524 762 561 787 q 441 738 488 738 q 368 752 401 738 l 293 783 q 273 787 285 787 q 233 736 237 787 l 106 736 q 130 847 105 800 q 250 928 172 928 q 318 913 286 928 l 382 884 q 416 876 399 876 q 459 928 453 876 l 590 928 z "},"ˉ":{"ha":694,"x_min":155,"x_max":540,"o":"m 540 904 l 540 764 l 155 764 l 155 904 l 540 904 z "},"˘":{"ha":694,"x_min":127,"x_max":568,"o":"m 127 928 l 267 928 q 348 853 279 853 q 428 928 412 853 l 568 928 q 515 798 555 846 q 347 726 454 726 q 178 795 240 726 q 127 928 136 844 z "},"˙":{"ha":694,"x_min":236,"x_max":458,"o":"m 458 958 l 458 736 l 236 736 l 236 958 l 458 958 z "},"˚":{"ha":694,"x_min":193,"x_max":500,"o":"m 349 1015 q 456 972 410 1015 q 500 869 500 930 q 456 764 500 807 q 347 722 410 722 q 238 764 283 722 q 193 868 193 808 q 238 972 193 930 q 349 1015 285 1015 m 347 919 q 311 904 326 919 q 296 869 296 889 q 311 832 296 847 q 347 817 326 817 q 383 832 368 817 q 398 868 398 847 q 383 904 398 890 q 347 919 368 919 z "},"¸":{"ha":694,"x_min":194,"x_max":500,"o":"m 194 -180 l 223 -108 q 300 -132 274 -132 q 350 -113 332 -132 q 366 -72 366 -96 q 345 -26 366 -43 q 301 -12 329 -12 q 226 -36 275 -12 l 197 32 q 334 74 271 74 q 443 40 396 74 q 500 -73 500 -1 q 443 -188 500 -144 q 334 -222 397 -222 q 194 -180 270 -222 z "},"˝":{"ha":694,"x_min":149,"x_max":673,"o":"m 420 948 l 275 736 l 149 736 l 218 948 l 420 948 m 673 948 l 528 736 l 402 736 l 471 948 l 673 948 z "},"˛":{"ha":694,"x_min":363,"x_max":619,"o":"m 575 37 q 503 -45 503 12 q 524 -92 503 -74 q 568 -107 541 -107 q 619 -89 594 -107 l 619 -208 q 525 -222 566 -222 q 414 -191 459 -222 q 363 -90 363 -154 q 445 44 363 -6 q 548 92 484 68 l 575 37 z "},"ˇ":{"ha":694,"x_min":83,"x_max":611,"o":"m 347 831 l 417 942 l 611 942 l 453 736 l 241 736 l 83 942 l 277 942 l 347 831 z "}," ":{"ha":209,"x_min":0,"x_max":0,"o":""},"¦":{"ha":694,"x_min":204,"x_max":490,"o":"m 204 926 l 490 926 l 490 419 l 204 419 l 204 926 m 204 213 l 490 213 l 490 -231 l 204 -231 l 204 213 z "},"­":{"ha":405,"x_min":0,"x_max":405,"o":"m 405 500 l 405 251 l 0 251 l 0 500 l 405 500 z "},"²":{"ha":565,"x_min":33,"x_max":528,"o":"m 526 516 l 526 370 l 33 370 q 47 471 36 439 q 88 527 59 500 q 189 602 126 562 q 330 699 309 679 q 350 744 350 718 q 330 784 350 768 q 284 799 311 799 q 222 768 243 799 q 208 718 208 748 q 211 688 208 708 l 42 688 q 66 826 43 782 q 288 939 127 939 q 460 890 389 939 q 528 760 528 842 q 487 648 528 698 q 382 570 464 620 q 296 516 345 548 l 526 516 z "},"³":{"ha":565,"x_min":33,"x_max":526,"o":"m 34 589 l 200 589 q 277 494 205 494 q 330 511 309 494 q 347 548 347 526 q 271 605 347 605 q 248 604 262 605 l 248 718 q 267 717 261 717 q 345 762 345 717 q 326 798 345 786 q 285 810 309 810 q 224 782 247 810 q 209 736 211 766 l 45 736 q 87 861 54 819 q 283 939 152 939 q 442 896 377 939 q 508 783 508 852 q 447 676 508 720 q 526 555 526 643 q 465 420 526 475 q 268 356 391 356 q 62 461 121 356 q 34 589 33 511 z "},"·":{"ha":414,"x_min":75,"x_max":340,"o":"m 340 481 l 340 213 l 75 213 l 75 481 l 340 481 z "},"¹":{"ha":565,"x_min":113,"x_max":434,"o":"m 434 926 l 434 370 l 251 370 l 251 683 l 113 683 l 113 804 q 243 843 199 805 q 283 926 283 879 l 434 926 z "},"¼":{"ha":1019,"x_min":113,"x_max":995,"o":"m 573 396 l 460 272 l 460 131 l 405 0 l 222 0 l 371 352 l 453 352 l 453 545 l 614 926 l 798 926 l 573 396 m 434 926 l 434 370 l 251 370 l 251 683 l 113 683 l 113 804 q 243 843 199 805 q 283 926 283 879 l 434 926 m 918 120 l 918 0 l 740 0 l 740 120 l 479 120 l 479 265 l 743 555 l 918 555 l 918 255 l 995 255 l 995 120 l 918 120 m 740 255 l 740 387 l 619 255 l 740 255 z "},"½":{"ha":1047,"x_min":113,"x_max":1010,"o":"m 644 564 q 525 449 562 532 q 506 299 505 401 l 532 299 l 405 0 l 222 0 l 371 352 l 453 352 l 453 545 l 614 926 l 798 926 l 644 564 m 434 926 l 434 370 l 251 370 l 251 683 l 113 683 l 113 804 q 243 843 199 805 q 283 926 283 879 l 434 926 m 1008 146 l 1008 0 l 515 0 q 530 100 519 70 q 570 157 541 130 q 671 232 608 191 q 812 330 791 309 q 832 374 832 349 q 812 414 832 399 q 766 429 793 429 q 705 399 726 429 q 690 348 690 378 q 693 317 690 338 l 524 317 q 549 456 525 412 q 770 570 609 570 q 942 521 872 570 q 1010 390 1010 472 q 969 278 1010 328 q 864 200 946 250 q 778 146 826 177 l 1008 146 z "},"¾":{"ha":1046,"x_min":33,"x_max":1023,"o":"m 602 396 l 489 272 l 489 131 l 433 0 l 251 0 l 404 363 q 545 555 545 424 q 522 642 545 602 l 643 926 l 826 926 l 602 396 m 34 589 l 200 589 q 277 494 205 494 q 330 511 309 494 q 347 548 347 526 q 271 605 347 605 q 248 604 262 605 l 248 718 q 267 717 261 717 q 345 762 345 717 q 326 798 345 786 q 285 810 309 810 q 224 782 247 810 q 209 736 211 766 l 45 736 q 87 861 54 819 q 283 939 152 939 q 442 896 377 939 q 508 783 508 852 q 447 676 508 720 q 526 555 526 643 q 465 420 526 475 q 268 356 391 356 q 62 461 121 356 q 34 589 33 511 m 947 120 l 947 0 l 768 0 l 768 120 l 507 120 l 507 265 l 771 555 l 947 555 l 947 255 l 1023 255 l 1023 120 l 947 120 m 768 255 l 768 387 l 648 255 l 768 255 z "},"Ð":{"ha":920,"x_min":-14,"x_max":904,"o":"m 33 380 l 307 380 l 307 241 l 408 241 q 538 273 491 241 q 622 460 622 330 q 536 655 622 601 q 412 685 489 685 l 307 685 l 307 565 l 33 565 l 33 926 l 456 926 q 749 838 638 926 q 904 463 904 716 q 830 173 904 287 q 577 8 741 35 q 463 0 530 0 l 33 0 l 33 380 m -14 399 l -14 547 l 409 547 l 409 399 l -14 399 z "},"×":{"ha":880,"x_min":104,"x_max":777,"o":"m 330 477 l 107 699 l 218 810 l 440 587 l 666 813 l 777 703 l 550 477 l 773 254 l 663 144 l 439 367 l 214 140 l 104 251 l 330 477 z "},"Ý":{"ha":960,"x_min":3,"x_max":958,"o":"m 617 335 l 617 0 l 339 0 l 339 335 l 3 926 l 311 926 l 479 570 l 645 926 l 958 926 l 617 335 m 697 1019 l 543 840 l 375 840 l 435 1019 l 697 1019 z "},"Þ":{"ha":770,"x_min":32,"x_max":764,"o":"m 310 172 l 310 0 l 32 0 l 32 926 l 310 926 l 310 814 l 389 814 q 585 783 514 814 q 715 664 667 745 q 764 484 764 583 q 693 281 764 366 q 414 172 601 172 l 310 172 m 310 587 l 310 389 l 368 389 q 443 407 418 389 q 482 492 482 435 q 430 580 482 559 q 372 587 410 587 l 310 587 z "},"ð":{"ha":773,"x_min":16,"x_max":758,"o":"m 378 939 l 285 869 q 231 943 260 904 l 301 1004 q 368 949 341 971 l 378 939 m 468 857 q 646 660 578 751 q 758 348 758 511 q 652 77 758 180 q 385 -23 547 -23 q 106 96 212 -23 q 16 338 16 197 q 127 590 16 492 q 340 673 220 673 q 413 663 374 673 q 368 739 399 690 q 351 768 361 751 l 468 857 m 387 513 q 302 471 333 513 q 271 347 271 429 q 389 153 271 153 q 480 211 452 153 q 505 330 505 261 q 387 513 505 513 m 250 716 l 203 784 l 495 1004 l 547 939 l 250 716 z "},"ý":{"ha":767,"x_min":3,"x_max":764,"o":"m 764 667 l 558 58 q 424 -170 500 -111 q 288 -212 370 -212 q 225 -213 271 -213 l 91 -213 l 91 -18 q 156 -19 151 -19 q 235 31 235 -19 q 219 98 235 56 l 3 667 l 268 667 l 384 255 l 500 667 l 764 667 m 618 948 l 462 736 l 302 736 l 368 948 l 618 948 z "},"þ":{"ha":784,"x_min":32,"x_max":768,"o":"m 270 926 l 270 585 q 334 647 304 627 q 473 688 392 688 q 685 594 607 688 q 768 328 768 496 q 698 85 768 176 q 473 -21 616 -21 q 344 12 399 -21 q 284 67 314 30 l 284 -218 l 32 -218 l 32 926 l 270 926 m 393 481 q 311 440 342 481 q 279 320 279 398 q 309 209 279 250 q 399 162 342 162 q 490 216 462 162 q 513 319 513 258 q 475 445 513 399 q 393 481 444 481 z "},"Ć":{"ha":912,"x_min":16,"x_max":909,"o":"m 720 1019 l 565 840 l 397 840 l 457 1019 l 720 1019 m 909 351 q 816 123 892 215 q 486 -21 695 -21 q 177 88 303 -21 q 64 239 106 150 q 16 467 16 343 q 80 722 16 606 q 283 909 153 851 q 469 947 369 947 q 730 871 616 947 q 880 686 840 798 q 901 582 896 644 l 629 582 q 593 669 622 637 q 475 718 550 718 q 360 665 402 718 q 298 457 298 585 q 359 262 298 331 q 483 208 405 208 q 610 281 571 208 q 629 351 625 309 l 909 351 z "},"ć":{"ha":732,"x_min":16,"x_max":729,"o":"m 601 948 l 445 736 l 285 736 l 351 948 l 601 948 m 485 275 l 729 271 q 649 80 726 157 q 522 3 598 31 q 382 -21 455 -21 q 102 102 208 -21 q 16 334 16 200 q 79 538 16 448 q 222 654 134 615 q 391 688 297 688 q 659 581 564 688 q 729 419 715 517 l 485 414 q 385 512 468 512 q 299 463 327 512 q 271 330 271 412 q 293 214 271 261 q 387 155 322 155 q 471 212 445 155 q 485 275 481 237 z "},"Č":{"ha":912,"x_min":16,"x_max":909,"o":"m 479 908 l 549 1019 l 743 1019 l 585 812 l 373 812 l 215 1019 l 409 1019 l 479 908 m 909 351 q 816 123 892 215 q 486 -21 695 -21 q 177 88 303 -21 q 64 239 106 150 q 16 467 16 343 q 80 722 16 606 q 283 909 153 851 q 469 947 369 947 q 730 871 616 947 q 880 686 840 798 q 901 582 896 644 l 629 582 q 593 669 622 637 q 475 718 550 718 q 360 665 402 718 q 298 457 298 585 q 359 262 298 331 q 483 208 405 208 q 610 281 571 208 q 629 351 625 309 l 909 351 z "},"č":{"ha":732,"x_min":16,"x_max":729,"o":"m 366 831 l 436 942 l 630 942 l 472 736 l 260 736 l 102 942 l 296 942 l 366 831 m 485 275 l 729 271 q 649 80 726 157 q 522 3 598 31 q 382 -21 455 -21 q 102 102 208 -21 q 16 334 16 200 q 79 538 16 448 q 222 654 134 615 q 391 688 297 688 q 659 581 564 688 q 729 419 715 517 l 485 414 q 385 512 468 512 q 299 463 327 512 q 271 330 271 412 q 293 214 271 261 q 387 155 322 155 q 471 212 445 155 q 485 275 481 237 z "},"đ":{"ha":785,"x_min":16,"x_max":791,"o":"m 753 869 l 501 869 l 501 926 l 753 926 l 753 869 m 753 720 l 753 0 l 515 0 l 515 77 q 450 13 481 33 q 311 -21 393 -21 q 94 77 169 -21 q 16 332 16 178 q 94 585 16 487 q 306 688 176 688 q 501 599 425 688 l 501 720 l 753 720 m 384 498 q 296 448 325 498 q 270 340 270 404 q 301 222 270 269 q 382 180 329 180 q 477 234 444 180 q 503 342 503 277 q 479 448 503 410 q 384 498 448 498 m 791 850 l 791 738 l 427 738 l 427 850 l 791 850 z "},"Ğ":{"ha":952,"x_min":16,"x_max":923,"o":"m 245 890 q 475 779 321 779 q 705 895 628 779 q 898 612 869 807 l 629 612 q 584 681 614 655 q 479 718 541 718 q 340 642 388 718 q 298 466 298 574 q 363 262 298 331 q 496 208 415 208 q 623 252 574 208 q 656 311 645 272 l 536 311 l 536 514 l 923 514 l 923 0 l 734 0 l 718 92 q 644 28 675 48 q 446 -21 563 -21 q 128 120 251 -21 q 16 444 16 250 q 147 810 16 665 q 245 890 187 854 m 223 1019 l 378 1019 q 477 936 392 936 q 575 1019 557 936 l 729 1019 q 669 876 715 928 q 475 797 600 797 q 283 873 353 797 q 229 979 240 919 q 223 1019 226 996 z "},"ğ":{"ha":764,"x_min":16,"x_max":732,"o":"m 161 928 l 302 928 q 382 853 313 853 q 463 928 447 853 l 603 928 q 550 798 590 846 q 381 726 489 726 q 213 795 275 726 q 161 928 171 844 m 732 667 l 732 180 q 726 52 732 108 q 618 -167 711 -102 q 382 -222 540 -222 q 127 -141 207 -222 q 64 -13 82 -96 l 301 -13 q 388 -58 324 -58 q 473 -19 451 -58 q 488 81 488 9 l 488 102 q 305 38 404 38 q 90 130 170 38 q 16 351 16 214 q 120 621 16 525 q 296 688 192 688 q 503 576 439 688 l 503 667 l 732 667 m 377 498 q 290 462 326 498 q 253 359 253 425 q 292 253 253 294 q 377 216 326 216 q 470 260 435 216 q 498 359 498 297 q 472 454 498 420 q 377 498 439 498 z "},"İ":{"ha":342,"x_min":32,"x_max":310,"o":"m 282 1019 l 282 796 l 60 796 l 60 1019 l 282 1019 m 310 926 l 310 0 l 32 0 l 32 926 l 310 926 z "},"Ł":{"ha":734,"x_min":-7,"x_max":804,"o":"m 310 639 l 32 477 l 32 926 l 310 926 l 310 639 m 310 376 l 310 241 l 724 241 l 724 0 l 32 0 l 32 214 l 310 376 m 486 720 l 804 473 l -7 214 l -7 434 l 486 720 z "},"ł":{"ha":317,"x_min":-14,"x_max":318,"o":"m 284 768 l 32 623 l 32 926 l 284 926 l 284 768 m 284 555 l 284 0 l 32 0 l 32 409 l 284 555 m -14 574 l 318 766 l 318 595 l -14 404 l -14 574 z "},"Ş":{"ha":848,"x_min":3,"x_max":838,"o":"m 279 -180 l 310 -108 q 389 -132 361 -132 q 440 -113 422 -132 q 456 -72 456 -96 q 435 -26 456 -43 q 390 -12 418 -12 q 313 -36 362 -12 l 282 32 q 424 74 359 74 q 536 40 488 74 q 595 -73 595 -1 q 536 -188 595 -145 q 423 -222 488 -222 q 279 -180 358 -222 m 800 669 l 524 669 q 507 712 517 699 q 407 749 479 749 q 339 734 366 749 q 311 690 311 718 q 342 650 311 665 q 456 617 360 642 q 657 557 608 578 q 838 309 838 480 q 771 127 838 207 q 427 -5 660 -5 q 130 74 244 -5 q 4 315 3 162 l 286 315 q 302 261 292 278 q 429 208 335 208 q 519 226 484 208 q 555 279 555 244 q 525 326 555 311 q 448 353 511 333 q 195 435 260 407 q 31 676 31 507 q 125 883 31 807 q 235 940 176 924 q 420 962 318 962 q 737 846 642 962 q 800 669 789 782 z "},"ş":{"ha":690,"x_min":3,"x_max":684,"o":"m 193 -180 l 222 -108 q 299 -132 273 -132 q 349 -113 330 -132 q 364 -72 364 -96 q 344 -26 364 -43 q 300 -12 328 -12 q 224 -36 273 -12 l 195 32 q 333 74 270 74 q 441 40 395 74 q 499 -73 499 -1 q 441 -188 499 -144 q 332 -222 395 -222 q 193 -180 269 -222 m 3 237 l 245 237 q 353 144 253 144 q 413 163 393 144 q 431 203 431 179 q 395 250 431 237 q 218 287 376 256 q 66 359 115 307 q 17 485 17 412 q 99 642 17 585 q 346 707 191 707 q 538 673 462 707 q 646 569 620 637 q 663 491 656 543 l 427 491 q 410 534 421 522 q 340 559 389 559 q 282 545 304 559 q 262 511 262 532 q 295 471 262 484 q 365 456 316 462 q 510 431 469 441 q 648 342 604 406 q 684 226 684 291 q 601 66 684 123 q 346 -1 506 -1 q 123 46 211 -1 q 12 176 33 95 q 3 237 6 199 z "},"Š":{"ha":848,"x_min":3,"x_max":838,"o":"m 800 654 l 524 654 q 507 696 517 684 q 407 734 479 734 q 339 719 366 734 q 311 674 311 703 q 342 635 311 649 q 456 602 360 627 q 657 542 608 562 q 838 294 838 465 q 771 111 838 191 q 427 -21 660 -21 q 130 58 244 -21 q 4 300 3 146 l 286 300 q 302 245 292 262 q 429 192 335 192 q 519 210 484 192 q 555 264 555 229 q 525 311 555 296 q 448 337 511 317 q 195 419 260 391 q 31 661 31 492 q 125 867 31 791 q 235 924 176 909 q 420 947 318 947 q 737 830 642 947 q 800 654 789 766 m 425 908 l 494 1019 l 688 1019 l 530 812 l 318 812 l 160 1019 l 354 1019 l 425 908 z "},"š":{"ha":690,"x_min":3,"x_max":684,"o":"m 3 217 l 245 217 q 353 124 253 124 q 413 143 393 124 q 431 184 431 159 q 395 230 431 217 q 218 267 376 236 q 66 339 115 288 q 17 465 17 392 q 99 623 17 565 q 346 688 191 688 q 538 654 462 688 q 646 549 620 618 q 663 471 656 523 l 427 471 q 410 515 421 502 q 340 539 389 539 q 282 526 304 539 q 262 491 262 513 q 295 451 262 464 q 365 436 316 442 q 510 411 469 421 q 648 323 604 387 q 684 206 684 271 q 601 46 684 104 q 346 -21 506 -21 q 123 26 211 -21 q 12 157 33 75 q 3 217 6 180 m 346 831 l 416 942 l 610 942 l 452 736 l 239 736 l 81 942 l 275 942 l 346 831 z "},"Ž":{"ha":827,"x_min":9,"x_max":817,"o":"m 817 241 l 817 0 l 9 0 l 9 241 l 414 685 l 35 685 l 35 926 l 790 926 l 790 713 l 361 241 l 817 241 m 414 908 l 484 1019 l 677 1019 l 519 812 l 307 812 l 149 1019 l 343 1019 l 414 908 z "},"ž":{"ha":661,"x_min":9,"x_max":651,"o":"m 637 489 l 330 193 l 651 193 l 651 0 l 9 0 l 9 182 l 312 474 l 36 474 l 36 667 l 637 667 l 637 489 m 330 831 l 400 942 l 594 942 l 436 736 l 224 736 l 66 942 l 260 942 l 330 831 z "},"₣":{"ha":880,"x_min":68,"x_max":812,"o":"m 593 421 l 448 421 l 448 338 l 346 338 l 346 0 l 68 0 l 68 926 l 812 926 l 812 685 l 346 685 l 346 555 l 593 555 l 593 421 m 621 403 l 621 357 q 736 412 666 412 q 785 405 755 412 l 785 271 q 740 277 757 277 q 632 169 632 277 l 632 0 l 467 0 l 467 403 l 621 403 z "},"−":{"ha":880,"x_min":70,"x_max":810,"o":"m 810 555 l 810 399 l 70 399 l 70 555 l 810 555 z "},"€":{"ha":981,"x_min":9,"x_max":971,"o":"m 9 503 l 43 585 l 157 585 q 258 777 188 694 q 426 905 329 861 q 628 948 521 948 q 971 804 821 948 l 937 721 q 627 867 811 867 q 331 737 452 867 q 242 585 269 671 l 771 585 l 879 585 l 846 503 l 225 503 q 224 464 224 478 q 225 423 224 450 l 812 423 l 779 342 l 242 342 q 307 218 261 278 q 435 109 359 149 q 626 60 524 60 q 937 205 812 60 l 937 90 q 628 -22 792 -22 q 353 63 477 -22 q 157 342 207 163 l 11 342 l 44 423 l 143 423 q 142 465 142 450 q 143 503 142 481 l 9 503 z "}}}
